<?xml version="1.0" encoding="UTF-8"?>
<svg id="Layer_2" xmlns="http://www.w3.org/2000/svg" xmlns:xlink="http://www.w3.org/1999/xlink" viewBox="0 0 277.24 280.11">
  <defs>
    <style>
      .cls-1, .cls-2 {
        fill: none;
      }

      .cls-3 {
        fill: #fff;
      }

      .cls-4 {
        fill: #4c3100;
      }

      .cls-5 {
        fill: #1f1f1f;
      }

      .cls-6 {
        fill: #ff7f00;
      }

      .cls-7 {
        fill: #002803;
      }

      .cls-8 {
        fill: #037000;
      }

      .cls-9 {
        clip-path: url(#clippath);
      }

      .cls-2 {
        stroke: #000;
        stroke-miterlimit: 10;
        stroke-width: 4px;
      }
    </style>
    <clipPath id="clippath">
      <path class="cls-2" d="M45.22,7.67h186.02c6.42,0,11.63,5.21,11.63,11.63v155.2c0,12.04-3.47,23.82-10.04,33.91-14.4,22.08-44.98,56.32-96.2,56.32s-81.38-33.77-95.89-55.86c-6.83-10.39-10.27-22.64-10.03-35.07l2.89-154.71c.12-6.34,5.29-11.41,11.62-11.41Z"/>
    </clipPath>
  </defs>
  <g id="Layer_4">
    <g>
      <g>
        <g class="cls-9">
          <rect class="cls-7" x="16.33" y="3.45" width="244.93" height="181.34"/>
          <path d="M150.49,160.95v2.94c.24,0,.47.01.71.02-.29-.98-.5-1.99-.71-2.96Z"/>
          <path d="M150.49,127.16v33.79c.22.97.42,1.98.71,2.96.2.71.46,1.41.8,2.06,2.51,4.86,6.85,7.1,12.21,7.55,9.62.82,19.23,1.67,28.84,2.52,4.31.38,8.12.95,8.19,6.89.04,3.22,4.21,4.49,9.26,4.1,3.74-.29,7.52.08,11.27.15-.01.73-.03,1.48-.04,2.21h-6.98c-2.33,0-4.66-.05-7-.01-3.34.06-6.08.8-6.07,5.04,0,.89-.78,1.79-1.77,3.92-.79-4.39-1.03-7.58-1.99-10.53-.73-2.24-1.92-4.81-3.7-6.13-4.11-2.99-7.28-1.15-7.16,3.93.16,6.44.53,12.87,1,19.3.34,4.8,3.37,7.34,8.73,7.59,3.57.15,7.17-.04,10.71.34,1.2.13,2.25,1.56,3.37,2.4-1.26.51-2.49,1.31-3.79,1.45-1.54.15-3.13-.28-5.56-.54v15.8c-.58.12-1.17.24-1.75.36-.54-1.78-1.44-3.53-1.54-5.34-.51-8.76-.41-8.82-8.6-10.92-3.14-.81-4.26-2.9-4.38-5.91-.28-6.99-.61-13.97-.93-20.95-.09-1.79.2-3.77-.47-5.3-.58-1.32-2.49-3.12-3.5-2.94-1.44.25-3.43,1.94-3.71,3.32-.93,4.48-1.17,9.09-2.67,13.67-.5-4.46-.98-8.92-1.48-13.38-.26-2.28-.88-4.79-3.7-3.97-1.55.45-3.63,2.65-3.68,4.11-.26,7.5-.06,15.04.3,22.55.05,1.09,1.74,2.47,2.98,3.04,1.72.8,3.75.96,6.5,1.58-.31,5.32-.61,10.54-.92,15.77-.57-.02-1.15-.03-1.72-.05-.29-3.22-.11-6.59-1.07-9.6-.54-1.7-2.95-2.8-4.52-4.17-.76,1.62-2.11,3.19-2.18,4.82-.24,5.37.02,10.77.01,16.14,0,1.9-.26,3.78-.41,5.66l-1.65.42c-.62-1.71-1.54-3.39-1.78-5.17-.18-1.34.61-2.78.75-4.19.67-6.98-3.64-10.64-10.53-9.2-3.08.65-4.75,2.16-4.62,5.49.12,3.15.02,6.33.02,10.46-1.21-1.01-2.21-1.52-2.66-2.33-.38-.71-.15-1.76-.16-2.65-.26-14.5-1.23-13.88,11.84-13.41,3.63.13,5.24-1.5,5.43-5.04.16-3.22.83-6.42.84-9.62.02-4.95-1.26-5.93-6.17-5.58-1.35.1-2.7.01-4.05.01-.18-.56-.38-1.12-.56-1.68,1.42-.52,2.83-1.11,4.29-1.53,2.4-.72,6.71-.96,6.92-2.06.67-3.35-.03-7.04-.69-10.51-.14-.79-2.24-1.56-3.51-1.7-9.11-1.04-21.1,8.62-22.12,17.67-.53,4.73,1.42,6.85,6.19,7.17,3.74.26,7.43.87,11.14,1.32-.02.76-.04,1.54-.06,2.32-2.61.16-5.23.61-7.82.44-7.77-.54-8.54-.27-8.75,7.4-.31,11.08-.09,22.17-.62,33.51-.33-1.83-.84-3.65-.96-5.49-.61-10-1.36-20.02-1.57-30.03-.11-4.82-2.54-5.67-6.49-5.58-3.53.09-7.07-.11-10.62-.18-.03-.73-.08-1.45-.11-2.19,3.04-.51,6.05-1.21,9.11-1.49,8.41-.78,10.72-4.34,7.61-12.02-2.75-6.81-12.89-13.27-20.28-12.91-4.78.23-5.85,2.04-5.92,8.69-.04,4.19,1.73,5.81,5.83,5.67,2.01-.06,4.85-1.25,5.78,3.12-1.76,0-3.22.08-4.67-.01-4.8-.29-7.06,1.88-6.54,6.7.37,3.37.76,6.81,1.82,9.99.47,1.45,2.48,2.52,3.97,3.47.64.42,1.74.11,2.65.1,11.4-.17,10.2-.52,10.4,10.62.04,2.47-.45,4.95-.7,7.43-.72-.02-1.44-.04-2.15-.08,0-2.29.25-4.62-.08-6.87-.38-2.66-.71-7.12-2.05-7.5-3.33-.98-7.74-1.14-10.65.4-1.78.94-1.76,5.62-2.15,8.67-.32,2.54-.06,5.16-.06,7.74h-2.34c-.13-4.12-.32-8.26-.39-12.38-.04-3.23.39-6.5-.01-9.67-.2-1.55-1.62-3.92-2.83-4.17-2.53-.52-4.37,1.12-4.54,4.02-.19,3.11-.42,6.22-.62,9.32h-1.39v-15.74c.14-.04.78-.33,1.45-.47,6.4-1.37,8.6-4.32,8.16-10.85-.33-4.8-.64-9.62-.88-14.43-.14-2.66-.45-5.18-3.84-5.43-3.78-.29-3.67,2.71-3.99,5.11-.6,4.4-1.02,8.83-2.39,13.35-.5-4.6-.86-9.21-1.55-13.76-.22-1.44-.92-3.25-2-4.01-2.39-1.66-5.18-.11-5.57,3.45-.54,4.96-.39,10-.52,15.02-.06,2.69.14,5.41-.15,8.06-.74,6.82-1.52,7.63-8.33,8.7-4.89.76-4.9,4.5-5.31,8.08-.29,2.46-.5,4.93-1.35,7.37-3.83-2.72-2.42-6.18-2.09-9.36.61-5.81.55-5.89-5.42-5.65-1.15.04-2.34-.89-3.51-1.37.94-.85,1.8-2.32,2.82-2.44,3.53-.43,7.12-.43,10.69-.54,6.59-.2,8.66-2.21,9.01-8.66.31-5.72.9-11.42.92-17.14,0-1.97-.93-5.17-2.23-5.66-3.1-1.16-6.17.37-7.38,3.65-1.11,2.99-1.53,6.23-2.26,9.37-.23.96-.48,1.92-.79,3.1-1.52-2.64-2.3-5.84-4.25-6.91-2.27-1.25-5.57-.72-8.42-.81-3.1-.1-6.2-.02-9.3-.02-.02-.62-.05-1.24-.08-1.85,3.55-.23,7.15-.85,10.67-.57,6.99.57,8.53-.36,10.99-6.89.57-1.49,2.53-3.32,3.98-3.43,9.08-.79,18.2-1.14,27.31-1.59,1.23-.05,2.49.33,3.71.26,11.69-.68,12.6-1.47,15.21-13.08l.11-6.57v-37.83c-.14-.51-.24-1.09-.29-1.75-.1-1.16-2.67-2.49-4.33-3.03-1.63-.54-3.54-.15-5.34-.2-5.88-.18-9.41-3.19-9.93-9.11-.37-4.23-.08-8.52.52-12.99.4,2.57.83,5.15,1.18,7.74,1.3,9.44,5.37,12.75,14.81,11.65,1.23-.14,3.27-1.57,3.27-2.39-.01-1.52-.89-3.78-2.09-4.37-2.08-1.02-4.67-1.01-7.06-1.43-.12.37-.25.73-.38,1.11,1.86.94,3.71,1.87,5.86,2.95-6.4,3.02-8.08,2.04-10.66-6.06,4.05-.27,8.01-.54,12.6-.85-.29-2.65-1.18-5.21-.61-7.41.55-2.13,2.59-3.88,3.49-6.85-3.89,1.57-7.78,3.15-11.68,4.74-.39-.23-.79-.45-1.18-.68.74-2.22,1.5-4.44,2.34-6.93-4.72.57-9.68,4.85-14.56-1.18-.16,3.32-.28,5.71-.4,8.1-.41.04-.82.1-1.23.14-.81-1.08-1.62-2.16-2.46-3.29-2.83,1.22-5.49,2.36-9.01,3.88.8-3.23,1.34-5.37,1.95-7.88-5.05.52-9.04-.62-12.16-5.45,3.5-2.13,6.72-4.09,10.23-6.22-2.92-.88-6.15-.94-7.49-2.55-1.18-1.41-.25-4.59-.25-7.38-.16.02-.73.1-1.29.18-3.24,2.49-3.67,5.32-1.5,8.86.59.98.09,2.64.09,3.98-.47.04-.96.09-1.43.14-.76-1.33-1.53-2.66-2.7-4.7-1.34,1.63-2.48,3.03-3.62,4.41,1.14.91,2.37,1.74,3.41,2.77.98.97,1.71,2.19,2.66,3.19,1.21,1.27,2.31,2.87,3.82,3.54,3.28,1.44,6.04,2.7,5.93,7.17-.02,1.09,2.85,2.25,5.2,3.97.06.67.09,2.63.46,4.52.8,4.09,2.67,7.04,7.57,6.45,2.26-.27,4.24.02,5.06,2.71,1.82,6.03,6.62,7.88,12.25,8.64,2.62.35,5.5.7,5.1,4.91l-.05,25.69v12.79l-.43.13-84.56-1.34s-.1-18,.02-26.91c.22-15.93.69-31.84.82-47.76.15-19.83.04-39.68.11-59.51.01-4.73.23-9.45.47-14.17.33-6.41,1.73-8.04,8.62-8.44,6.79-.41,13.62-.01,20.44-.21,10.47-.29,20.93-.8,31.4-1.13-2.5,0-4.99.01-7.48.01-15.88.04-31.77.19-47.66.34-6.85.08-10.19,2.47-10.74,9.31-.64,7.96-.17,16-.18,24.01,0,11.32.03,22.62-.02,33.94-.04,9.26-.25,18.52-.27,27.78-.05,19.5-.02,39-.02,58.51h-1.8c0,10.94-.11,21.87.08,32.81.04,2.18,1.02,4.37,1.82,6.47.81,2.16,2.11,4.15,2.87,6.31,5.88,16.57,14.43,31.23,27.14,43.78,20.14,19.89,44.39,29.9,72.08,31.53,25.45,1.51,49.22-4.8,71.03-18.46,18.89-11.82,34.37-26.81,45.37-46.22,2.61-4.61,6.17-9.5,6.47-14.43,1.04-16.98.85-34.03,1.09-51.06.3-21.65.45-43.32.87-64.97.32-16.84,1.17-33.67,1.35-50.5.05-5.99-.51-12.16-2.05-17.91-1.35-5.03-4.73-9.53-10.72-10-.94-.08-1.87-.15-2.81-.23,5.78,2.44,10.6,8.59,10.69,14.74.19,12.29.02,24.58-.17,36.87-.31,19.44-.67,38.88-1.2,58.32-.41,15.39-1.14,30.76-1.63,46.15-.1,2.93-4.18,4.37-4.18,4.37l-87.94-.78v-20.73s-.01-.01-.01-.01h.01v-11.97h-.01s.01-.08.01-.12v-2.14h.27c.05-.47.1-.95.13-1.42.06-.95.05-1.9-.1-2.86-.02-.1-.03-.19-.03-.28-.53-3.77,1.56-4.37,3.67-4.56,6.08-.5,11.19-2.2,13.33-8.78.32-1,1.9-2.09,3.01-2.24,8.16-1.07,8.74-1.57,9.58-9.73.08-.7.19-1.4.33-2.39,3.37-.24,5.63-1.29,5.55-5.44-.03-1.36,2.42-3.26,4.13-4.05,3.79-1.75,6.22-4.13,6.09-8.53l-.18-.17c-1.26-.84-2.51-1.67-3.81-2.53,1.42-3.97,5.08-7.41.92-11.25-.39-.32-.78-.66-1.16-.99h-2.19c3.5,7.75,2.69,8.97-7.53,9.94,4.2,2.43,7.5,4.34,10.96,6.34-2.72,5.17-6.85,5.98-11.98,5.62.55,2.38,1.08,4.64,1.92,8.25-3.46-1.59-5.91-2.73-8.76-4.06-.67,1-1.4,2.08-2.23,3.29-4.95-1.49.47-6.12-2.82-8.17-4.05,7.2-9.38.93-14.33.93.93,2.36,1.78,4.49,2.62,6.62-.42.31-.84.62-1.26.94-3.84-1.55-7.7-3.1-11.55-4.65-.25.31-.48.61-.73.92,1.41,1.8,3.51,3.41,4.03,5.44.43,1.72-.95,3.91-1.53,5.88-.02.53-.03,1.05-.04,1.58,4.51.54,9.02,1.09,13.59,1.64q-4.08,8.33-10.75,5.88c2.52-1.17,4.31-2,6.08-2.83.03-.28.06-.57.1-.85-2.72-.13-5.45-.25-8.09-.38-1.95,7.12-.61,8.85,5.84,8.24,6.93-.66,8.14-1.57,9.88-8.3.97-3.71,1.59-7.52,2.37-11.28.45.05.89.11,1.34.16-.66,5.49-.86,11.08-2.13,16.42-.88,3.7-4.25,5.61-8.22,5.79-1.79.09-3.59.15-5.37.04-2.71-.16-4.68.46-4.83,3.29h.12v9.97ZM180.6,92.66c.41.1.81.2,1.21.3-1.09,3.18-1.83,6.56-3.49,9.41-.51.86-3.51.28-5.07.36,2.72-3.74,5.04-6.9,7.35-10.07ZM174.47,93.39c.24,1.09.4,2.19.57,3.28-.45.06-.92.14-1.38.2-.19-1.15-.39-2.29-.58-3.49.78,0,1.37-.06,1.39,0ZM165.34,97.39h-9.72c-.1-1.62-.19-3.11-.32-5.17,4.95,1.41,10.09,3.26,8.71-5.57.72.24,1.45.47,2.18.71-.27,3.22-.54,6.44-.84,10.02ZM104.35,86.58c.54,2.06,1.08,4.12,1.76,6.7,2.37-.59,4.53-1.13,7.47-1.87v5.3h-9.74c-.28-3.26-.56-6.56-.85-9.85.46-.1.92-.18,1.37-.27ZM90.91,101.54c-1.58-2.8-2.28-6.09-3.32-9.21.42-.14.84-.27,1.26-.41,2.2,3.06,4.39,6.12,7,9.73-1.49,0-4.5.67-4.94-.12ZM95.93,96.28h-1.34v-4.12h1.34v4.12Z"/>
          <path class="cls-3" d="M156.07,77.68c3.91-3.95,4.13-11.44.28-17.16-.37,4.16-.67,7.49-1.01,11.23-2.41-1.29-4.13-2.21-5.84-3.13-.37.47-.74.94-1.11,1.41,2.56,2.55,5.12,5.09,7.69,7.65ZM91.78,64.84c-4.12,3.21-5.67,7.36-3.96,9.35.87,1.01,2.94,1.97,4.04,1.62,3.16-1.01,6.16-2.63,7.42-5.82l-.87-1.02c-2.56,1.56-5.12,3.12-7.68,4.68-.34-.33-.69-.66-1.03-.98.69-2.61,1.39-5.22,2.08-7.83ZM170.52,69.6c-.28.34-.55.67-.83,1.01,2.14,3.17,4.8,5.8,9.02,5.78,1.05,0,2.83-1.35,3.01-2.32.64-3.4-.42-6.41-4.24-9.49.73,3.77,1.24,6.36,2.03,10.42-3.79-2.27-6.39-3.83-8.99-5.39ZM150.27,27.58c3.68,1.98,5.89,3.17,8.86,4.77-.43-2.21-.43-5.71-1.31-5.95-1.96-.53-4.37.56-7.56,1.18ZM110.56,31.47l1.25.82c-.5-5.49,3.55-3.38,5.92-4.08.06-.53.12-1.06.17-1.59-2.33-.54-4.67-1.08-7.75-1.79.18,2.89.3,4.76.41,6.63ZM73.15,60.28s-.03.01-.04.01l.05.03s-.01-.03-.01-.04Z"/>
          <path class="cls-8" d="M119.26,98.47c2.78-3.34,4.97-6,7.59-9.14.33,1.21.57,1.81.65,2.42.52,4.09,1.54,4.6,4.93,2.16,2.36-1.69,4.58-3.56,6.86-5.36.31.31.62.62.94.93-1,1.75-1.99,3.51-2.98,5.27q3.98,2.06,4.9-4.02c2.85,2.38,5.65,4.73,8.46,7.06.58-1.97,1.96-4.16,1.53-5.88-.52-2.02-2.62-3.64-4.03-5.44.25-.3.48-.6.73-.92,3.85,1.55,7.71,3.1,11.55,4.65.42-.31.84-.62,1.26-.94-.84-2.13-1.69-4.26-2.62-6.62,4.95,0,10.28,6.28,14.33-.93,3.29,2.06-2.13,6.69,2.82,8.17.83-1.22,1.56-2.29,2.23-3.29,2.85,1.32,5.31,2.47,8.76,4.06-.84-3.61-1.37-5.87-1.92-8.25,5.14.36,9.26-.45,11.98-5.62-3.46-2-6.76-3.91-10.96-6.34,10.22-.97,11.03-2.19,7.53-9.94h2.19c.46-2.96,4.16-6.7.48-8.59-2.37-1.23-6.47.93-9.81,1.55-.31.06-.65.01-.78.01v-13.78c-4.01,1.39-7.14,2.48-10.26,3.56-.25,2.38-.5,4.75-.74,7.12-.52-.05-1.03-.11-1.55-.16.12-2.55-1.87-5.33,1.74-7.52-1.87-1.49-3.76-2.96-5.63-4.45.27-.47.53-.96.8-1.44,1.81.82,3.61,1.64,6.43,2.91-.64-3.46-1.17-6.44-1.71-9.41-3.48,1.07-6.95,2.13-10.71,3.29,1.45-3.65,2.98-7.46,4.51-11.28-.41-.36-.82-.71-1.23-1.07-3.52.84-7.03,1.67-11.1,2.64,0-1.58.14-2.61-.03-3.57-.58-3.42-2.73-5.16-5.59-2.83-4.03,3.27-7.45,7.29-11.58,11.43-.87-1.68-2.1-4.04-3.38-6.48-5.05-.46-7.9,1.95-8.56,7.33-5.88-2.85-6.51-10.88-13.62-12.14-.28,1.95-.52,3.61-.82,5.73-2.51-.74-4.65-1.53-6.86-1.99-1.3-.27-3.63-.48-3.89.04-.6,1.25-.64,3.11-.16,4.46.8,2.26,2.18,4.32,3.31,6.46-.27.32-.54.65-.8.97-1.06-.56-2.07-1.26-3.18-1.65-2.26-.81-4.57-1.44-6.86-2.14-.51,2.15-1.11,4.3-1.5,6.47-.14.79.22,1.66.34,2.42,2.08-.83,3.91-1.55,5.36-2.12-1.27,4.77-2.4,9-3.79,14.18-.82-6.32-3.23-10.86-10.98-10.82v13.11c-2.34-.79-4.22-1.73-6.21-2-1.77-.25-4.37-.39-5.27.62-.94,1.04-.4,3.53-.24,5.36.1,1.21.65,2.36.99,3.53.55-.08,1.09-.15,1.25-.17,0,2.79-.94,5.96.25,7.38,1.35,1.61,4.58,1.67,7.49,2.55-3.51,2.13-6.73,4.09-10.23,6.22,3.11,4.82,7.11,5.96,12.16,5.45-.61,2.51-1.15,4.65-1.95,7.88,3.52-1.52,6.18-2.66,9.01-3.88.84,1.13,1.65,2.22,2.46,3.29.41-.04.82-.1,1.23-.14.12-2.39.24-4.78.4-8.1,4.88,6.03,9.84,1.76,14.56,1.18-.84,2.5-1.59,4.72-2.34,6.93.4.23.8.45,1.18.68,3.9-1.58,7.8-3.17,11.68-4.74-.89,2.97-2.94,4.72-3.49,6.85-.56,2.17.3,4.7.6,7.32.91-.11,1.76-.3,2.6-.55-.25.01-.5.02-.74.03Z"/>
          <path class="cls-4" d="M210.5,187.03c-5.05.39-9.22-.88-9.26-4.1-.08-5.94-3.89-6.51-8.19-6.89-9.6-.85-19.22-1.7-28.84-2.52-5.36-.45-9.7-2.69-12.21-7.55-.81-1.55-1.13-3.35-1.51-5.02l-.13-43.03c-.15-3.46,1.91-4.2,4.85-4.03,1.79.11,3.59.04,5.37-.04,3.96-.18,7.33-2.09,8.22-5.79,1.27-5.34,1.47-10.93,2.13-16.42-.44-.05-.88-.11-1.34-.16-.78,3.77-1.4,7.57-2.37,11.28-1.74,6.73-2.95,7.65-9.88,8.3-6.45.61-7.78-1.12-5.84-8.24,2.64.13,5.36.25,8.09.38-.03.28-.06.57-.1.85-1.78.83-3.56,1.66-6.08,2.83q6.66,2.46,10.75-5.88c-4.57-.55-9.08-1.1-13.59-1.64-4.95-1.99-9.98,1.23-15.4-.93-4.14-1.64-9.49-.26-15.16,0-.84.26-1.69.45-2.6.55,0,.03,0,.06.01.09-4.59.31-8.55.58-12.6.85,2.58,8.1,4.26,9.08,10.66,6.06-2.14-1.08-3.99-2.01-5.86-2.95.13-.38.26-.74.38-1.11,2.39.42,4.99.41,7.06,1.43,1.2.59,2.08,2.85,2.09,4.37,0,.82-2.05,2.25-3.27,2.39-9.43,1.1-13.5-2.21-14.81-11.65-.36-2.6-.79-5.17-1.18-7.74-.59,4.47-.88,8.75-.52,12.99.52,5.92,4.05,8.93,9.93,9.11,1.8.05,3.71-.33,5.34.2,1.66.54,4.23,1.86,4.33,3.03l-.38,44.89h.86c-.11.44-.2.85-.3,1.26-2.62,11.61-3.52,12.4-15.21,13.08-1.23.08-2.49-.31-3.71-.26-9.11.45-18.23.81-27.31,1.59-1.45.12-3.41,1.95-3.98,3.43-2.47,6.54-4.01,7.46-10.99,6.89-3.52-.28-7.12.34-10.67.57.02.61.05,1.23.08,1.85,3.1,0,6.2-.08,9.3.02,2.85.09,6.15-.44,8.42.81,1.95,1.08,2.73,4.27,4.25,6.91.3-1.18.56-2.14.79-3.1.73-3.13,1.15-6.37,2.26-9.37,1.21-3.28,4.27-4.81,7.38-3.65,1.3.5,2.23,3.69,2.23,5.66-.01,5.72-.6,11.42-.92,17.14-.36,6.45-2.42,8.45-9.01,8.66-3.57.11-7.16.11-10.69.54-1.02.13-1.88,1.59-2.82,2.44,1.17.47,2.36,1.41,3.51,1.37,5.97-.24,6.03-.16,5.42,5.65-.33,3.18-1.74,6.63,2.09,9.36.85-2.43,1.06-4.91,1.35-7.36.41-3.57.42-7.31,5.31-8.08,6.82-1.07,7.59-1.88,8.33-8.7.29-2.66.09-5.37.15-8.06.13-5.02-.02-10.06.52-15.02.39-3.55,3.18-5.1,5.57-3.45,1.09.75,1.79,2.56,2,4.01.69,4.55,1.06,9.16,1.55,13.76,1.37-4.52,1.79-8.95,2.39-13.35.32-2.4.22-5.4,3.99-5.11,3.39.25,3.7,2.77,3.84,5.43.25,4.81.55,9.63.88,14.43.44,6.54-1.77,9.49-8.16,10.85-.68.14-1.31.43-1.45.47v15.74h1.39c.2-3.1.43-6.21.62-9.32.17-2.9,2.01-4.53,4.54-4.02,1.22.25,2.63,2.62,2.83,4.17.4,3.17-.03,6.44.01,9.67.06,4.12.26,8.26.39,12.38h2.34c0-2.58-.26-5.2.06-7.74.4-3.05.38-7.73,2.15-8.67,2.91-1.54,7.32-1.38,10.65-.4,1.34.39,1.67,4.85,2.05,7.5.32,2.25.08,4.58.08,6.87.71.03,1.43.05,2.15.08.25-2.48.74-4.96.7-7.43-.2-11.13,1-10.79-10.4-10.62-.9.01-2.01.32-2.65-.1-1.5-.95-3.5-2.01-3.97-3.47-1.06-3.19-1.45-6.62-1.82-9.99-.53-4.81,1.73-6.99,6.54-6.7,1.45.09,2.92.01,4.67.01-.94-4.37-3.77-3.19-5.78-3.12-4.09.14-5.87-1.49-5.83-5.67.08-6.65,1.14-8.46,5.92-8.69,7.39-.36,17.53,6.11,20.28,12.91,3.11,7.68.8,11.24-7.61,12.02-3.06.28-6.07.98-9.11,1.49.03.73.08,1.45.11,2.19,3.54.08,7.08.27,10.62.18,3.95-.1,6.39.75,6.49,5.58.22,10.01.96,20.03,1.57,30.03.12,1.84.62,3.66.96,5.49.54-11.34.31-22.43.62-33.51.22-7.67.98-7.94,8.75-7.4,2.58.17,5.21-.28,7.82-.44.02-.78.04-1.55.06-2.32-3.71-.45-7.41-1.07-11.14-1.32-4.77-.32-6.72-2.44-6.19-7.17,1.01-9.04,13.01-18.71,22.12-17.67,1.27.14,3.37.92,3.51,1.7.66,3.47,1.36,7.16.69,10.51-.22,1.1-4.52,1.34-6.92,2.06-1.45.42-2.86,1.01-4.29,1.53.18.56.38,1.12.56,1.68,1.35,0,2.7.09,4.05-.01,4.91-.36,6.19.62,6.17,5.58-.01,3.2-.68,6.4-.84,9.62-.18,3.54-1.8,5.17-5.43,5.04-13.07-.47-12.1-1.1-11.84,13.41.01.89-.22,1.94.16,2.65.45.81,1.45,1.31,2.66,2.33,0-4.12.1-7.3-.02-10.46-.13-3.33,1.54-4.85,4.62-5.49,6.89-1.44,11.2,2.22,10.53,9.2-.14,1.41-.94,2.85-.75,4.19.24,1.78,1.15,3.46,1.78,5.17l1.65-.42c.15-1.88.41-3.77.41-5.66.01-5.37-.25-10.77-.01-16.14.06-1.64,1.41-3.21,2.18-4.82,1.57,1.37,3.98,2.47,4.52,4.17.96,3.02.78,6.39,1.07,9.6.57.02,1.15.03,1.72.05.3-5.23.6-10.46.92-15.77-2.76-.62-4.78-.79-6.5-1.58-1.24-.57-2.93-1.95-2.98-3.04-.37-7.5-.56-15.04-.3-22.55.05-1.46,2.13-3.66,3.68-4.11,2.82-.82,3.45,1.69,3.7,3.97.5,4.47.98,8.93,1.48,13.38,1.5-4.59,1.74-9.2,2.67-13.67.28-1.38,2.27-3.07,3.71-3.32,1.01-.18,2.92,1.62,3.5,2.94.68,1.53.39,3.51.47,5.3.31,6.99.65,13.97.93,20.95.12,3.01,1.24,5.1,4.38,5.91,8.19,2.1,8.1,2.15,8.6,10.92.1,1.81,1,3.56,1.54,5.34.58-.12,1.17-.24,1.76-.36v-15.8c2.42.26,4.02.69,5.56.54,1.3-.14,2.53-.95,3.79-1.45-1.12-.84-2.18-2.27-3.37-2.4-3.54-.39-7.14-.19-10.71-.34-5.36-.25-8.39-2.79-8.73-7.59-.47-6.43-.84-12.86-1-19.3-.12-5.08,3.05-6.92,7.16-3.93,1.79,1.31,2.97,3.89,3.7,6.13.96,2.95,1.21,6.14,1.99,10.53.99-2.13,1.77-3.03,1.77-3.92-.01-4.24,2.74-4.97,6.07-5.04,2.34-.04,4.67.01,7,.01h6.98c.01-.73.03-1.48.04-2.21-3.76-.08-7.54-.44-11.27-.15Z"/>
          <path d="M196,60.52c.47-2.96,4.16-6.7.49-8.6-2.37-1.22-6.47.93-9.8,1.56-.32.06-.65,0-.78,0v-13.78c-4,1.39-7.13,2.48-10.26,3.56-.18-.19-.36-.38-.54-.57-1.88-1.48-3.76-2.96-5.64-4.44.27-.48.53-.96.8-1.44,1.8.82,3.61,1.63,6.42,2.91-.63-3.47-1.17-6.44-1.71-9.42-3.47,1.07-6.95,2.13-10.72,3.29,1.46-3.65,2.99-7.46,4.52-11.28-.41-.36-.82-.71-1.23-1.07-3.52.84-7.03,1.67-11.1,2.64,0-1.58.14-2.61-.03-3.58-.59-3.42-2.74-5.15-5.6-2.83-4.02,3.27-7.44,7.28-11.57,11.43-.88-1.68-2.11-4.03-3.39-6.48-5.04-.45-7.9,1.96-8.56,7.34-5.88-2.85-6.51-10.88-13.62-12.13-.28,1.95-.52,3.6-.82,5.73-2.5-.75-4.65-1.53-6.86-1.99-1.3-.27-3.63-.49-3.88.05-.6,1.25-.64,3.11-.16,4.46.8,2.26,2.17,4.31,3.3,6.45l-.79.97c-1.06-.56-2.06-1.26-3.18-1.65-2.25-.8-4.56-1.43-6.85-2.14-.52,2.15-1.12,4.29-1.5,6.47-.14.79.22,1.67.34,2.42,2.08-.82,3.91-1.55,5.37-2.12-1.28,4.77-2.41,9.01-3.8,14.18-.82-6.32-3.23-10.87-10.98-10.83v13.12c-2.34-.79-4.23-1.74-6.21-2.01-1.77-.24-4.37-.38-5.27.63-.93,1.04-.39,3.53-.24,5.37.1,1.21.66,2.38,1.01,3.57-4.32-.05-4.51-3.82-5.06-6.49-.33-1.62.96-4.81,2.27-5.3,3.45-1.29,2.97-4.01,3.62-6.47.51-1.93,1.33-3.77,2.02-5.65.47.17.95.33,1.42.5-.38,3.28-.81,6.56-.99,9.85,0,.15,2.17.42,3.34.63q1.56-10.5,9.78-10.38c1.55-4.5-1.74-12.75,7.43-11.76-.53-2.1-1.92-4.58-1.23-5.54,1.04-1.44,3.5-2.21,5.47-2.51,1.86-.28,3.87.52,5.82.64,1.18.07,2.49-.02,3.55-.47,1.48-.64,3.03-2.64,4.11-2.36,2.5.65,4.91,2.08,7.02,3.64,1.52,1.13,2.51,2.98,3.91,4.72,4.78-2.1,9.29-8.75,14.55-.97,2.3-2.44,4.29-4.95,6.68-6.99,4.15-3.54,7.8-3.41,11.24.67,1.74,2.06,3.22,3.06,5.82,2.23.83-.26,1.83-.37,2.66-.17,2.35.54,5.14.72,6.77,2.16.77.68-.7,3.91-1.14,5.92,5.28.07,6.53.99,6.69,6.5.1,3.55,1,5.43,4.97,4.94,3.12-.39,4.62,1.37,4.71,4.44.05,1.96.18,3.91.27,5.87q4.73.05,3.91-10.51c.74,1.42,1.8,2.77,2.14,4.28.7,3.15,1.22,5.9,4.45,7.98,3.61,2.33,2.37,7.6-2.2,11.81-.39-.33-.78-.66-1.17-.99Z"/>
          <path d="M150.56,99.37c-4.95-2-9.98,1.23-15.39-.92-4.32-1.72-9.96-.13-15.9.02,2.77-3.34,4.97-5.99,7.59-9.14.33,1.21.57,1.81.65,2.43.52,4.09,1.54,4.59,4.92,2.16,2.36-1.69,4.58-3.57,6.86-5.36.31.31.62.62.94.93-1,1.76-1.99,3.51-2.98,5.26q3.99,2.05,4.9-4.02c2.85,2.39,5.66,4.73,8.46,7.07-.01.53-.03,1.05-.04,1.58Z"/>
          <path class="cls-8" d="M166.18,87.37c-.27,3.22-.54,6.44-.84,10.02h-9.72c-.1-1.61-.19-3.1-.32-5.16,4.95,1.41,10.08,3.26,8.71-5.57.73.24,1.45.47,2.18.71Z"/>
          <path class="cls-8" d="M113.57,91.41v5.29h-9.74c-.28-3.26-.56-6.56-.85-9.86.45-.09.91-.18,1.36-.27.54,2.06,1.08,4.13,1.76,6.7,2.37-.59,4.53-1.13,7.47-1.86Z"/>
          <path class="cls-8" d="M95.86,101.66c-1.49,0-4.51.66-4.95-.12-1.58-2.8-2.28-6.1-3.31-9.21.42-.13.84-.27,1.26-.4,2.2,3.05,4.39,6.11,7,9.73Z"/>
          <path class="cls-8" d="M181.8,92.97c-1.09,3.18-1.84,6.55-3.49,9.41-.5.87-3.51.29-5.08.36,2.73-3.74,5.05-6.9,7.36-10.07.4.1.8.2,1.21.3Z"/>
          <path class="cls-8" d="M94.6,96.28v-4.12c.44,0,.89,0,1.33,0v4.12c-.44,0-.89,0-1.33,0Z"/>
          <path class="cls-8" d="M173.66,96.87c-.19-1.15-.39-2.29-.59-3.49.78,0,1.38-.06,1.39,0,.24,1.08.4,2.18.58,3.28-.46.07-.92.14-1.38.21Z"/>
          <path d="M200.06,75.28c.23-1.81.47-3.63.7-5.44.45-.21.89-.43,1.34-.64,1.06,1.79,2.13,3.58,3.19,5.37-1.68.29-3.36.59-5.05.88l-.19-.17Z"/>
          <path d="M191.96,90.99c1.04-1.5,2.08-3,3.94-5.67.43,2.65,1.43,4.79.76,5.85-.65,1.01-3.05.9-4.68,1.28,0-.49-.01-.98-.02-1.46Z"/>
          <path d="M78.1,91.8c-2.62-.59-5.04-.53-5.39-1.34-.56-1.33.23-3.24.6-5.94,1.82,2.77,2.83,4.3,4.79,7.28Z"/>
          <path d="M156.07,77.68c-2.57-2.56-5.13-5.11-7.69-7.65.37-.47.74-.94,1.11-1.41,1.72.92,3.44,1.84,5.84,3.13.34-3.74.63-7.07,1.01-11.23,3.85,5.72,3.63,13.21-.28,17.16Z"/>
          <path d="M91.78,64.84c-.69,2.61-1.39,5.22-2.08,7.83.34.33.69.66,1.03.98,2.56-1.56,5.12-3.12,7.68-4.68l.87,1.02c-1.25,3.19-4.26,4.81-7.42,5.82-1.1.35-3.17-.61-4.04-1.62-1.72-1.99-.16-6.14,3.96-9.35Z"/>
          <path d="M170.52,69.6c2.6,1.56,5.2,3.12,8.99,5.39-.79-4.06-1.3-6.65-2.03-10.42,3.82,3.08,4.88,6.08,4.24,9.49-.18.97-1.96,2.31-3.01,2.32-4.23.02-6.88-2.6-9.02-5.78.28-.34.55-.67.83-1.01Z"/>
          <path d="M150.27,27.58c3.19-.62,5.59-1.71,7.56-1.18.88.24.87,3.74,1.31,5.95-2.97-1.6-5.18-2.79-8.86-4.77Z"/>
          <path d="M110.56,31.47c-.12-1.87-.23-3.74-.41-6.63,3.09.71,5.42,1.25,7.75,1.79-.06.53-.12,1.06-.17,1.59-2.37.7-6.42-1.41-5.92,4.08l-1.25-.82Z"/>
          <path d="M175.64,43.27c-.25,2.37-.49,4.74-.74,7.12l-1.55-.17c.11-2.56-1.88-5.33,1.75-7.52.18.19.36.38.54.57Z"/>
          <path d="M154.57,121.45c-.02-.1-.03-.19-.03-.28,0,.02.01.04.01.06.01.08.02.14.02.22Z"/>
          <g>
            <path class="cls-6" d="M135.12,188.36c-.76-.03-1.37-.64-1.43-1.4-.16-1.24-3.69-6.27-5.5-8.39-.34.33-.79.6-1.38.6-.5,0-1.41-.21-1.93-1.6-.01-.03-.02-.07-.03-.1-.11-.33-.22-.73-.31-1.18-.29-1.48-.08-2.71.65-3.86.36-.58.82-1.07,1.26-1.55,1.04-1.13,2.12-2.29,2.46-4.94.43-3.28.18-11.72-.07-19.88-.2-6.59-.4-13.38-.25-17.64-.56-.2-1.94-.52-5.24-.69-.35-.02-.7-.03-1.08-.03-1.6,0-3.68.13-5.69.26-2.03.13-4.13.26-5.78.26-2.02,0-4.04-.13-4.58-1.63-.17-.47-.11-.94.02-1.44,0,0-.01-.01-.02-.02-.5-.39-.7-1.05-.5-1.66.27-.81.31-1.88.32-2.93,0-.36.13-.7.37-.97.34-.39.63-.8.88-1.24.21-.37.57-.63.98-.72.1-.02.21-.03.32-.03.31,0,.62.1.88.28,1.06.77,1.52,1.99,1.89,2.97.42,1.12.59,1.41.84,1.42,2.13-.13,14.88-3.39,15.62-7.67.03-.19.1-.67.14-1.66.25-5.01.01-17.26-.24-30.22-.12-6.19-.24-12.46-.31-18.01-.05-4.18-.06-7.49-.04-10.14.02-2.51.07-4.49.16-5.89.02-.28.11-.55.28-.78l6.17-8.63c.28-.39.73-.62,1.21-.63h.02c.47,0,.92.22,1.2.6l6.45,8.63c.18.24.28.52.3.81.08,1.4.12,3.65.12,7.06,0,2.74-.03,5.99-.07,9.55-.05,4-.12,8.37-.19,12.83-.22,14.04-.45,28.56-.15,34.82.08,2.05.21,2.52.23,2.57.16.51,1.16,2.34,7.41,4.6,3.89,1.41,7.54,2.14,8.04,2.17.13,0,.21-.01.58-1.13.33-1.02.83-2.57,2.47-3.17.17-.06.34-.09.51-.09.47,0,.93.22,1.21.62.18.24.36.47.54.68.17.2.29.45.33.72.07.44.13.88.19,1.33.1.79.19,1.53.4,2.24.15.52,0,1.07-.36,1.46,0,.66-.14,1.37-.6,2-.94,1.27-2.62,1.43-3.98,1.43-1.12,0-2.44-.12-3.96-.27-1.96-.18-4.17-.39-6.58-.39-.63,0-1.27.01-1.93.05-3.36.17-4.74.5-5.29.69.03,3.3-.1,8.73-.23,14.45-.22,9.54-.47,20.35-.07,23.34.34,2.48,1.4,3.57,2.42,4.63.3.31.58.6.82.9.48.58,1.12,1.5,1.16,2.85.07,1.95-.18,3.08-.83,3.76-.38.4-.88.62-1.42.63h0c-.59,0-1.09-.24-1.5-.52-1.71,2.11-5.42,7.54-5.74,8.67-.12.73-.74,1.24-1.47,1.24-.02,0-.04,0-.06,0Z"/>
            <path d="M135.18,40.12l6.45,8.63c.09,1.48.12,3.9.12,6.97,0,2.73-.03,5.98-.07,9.53-.2,16.46-.73,39.41-.34,47.74.06,1.49.16,2.52.3,2.95,1.41,4.55,15.61,7.82,16.85,7.82,0,0,.01,0,.02,0,2.47-.09,1.51-3.65,3.57-4.39.2.27.4.52.61.77.21,1.24.27,2.49.62,3.73-.23-.12-.46-.25-.68-.39.82,2.69-.34,3.36-2.81,3.36s-6.2-.66-10.54-.66c-.66,0-1.32.01-2,.05-1.33.07-6.33.31-6.72,1.51.14,8.15-.97,33.59-.28,38.67.51,3.7,2.45,4.93,3.57,6.29.46.56.79,1.15.82,1.94.07,2.19-.3,2.83-.77,2.84h-.02c-.61,0-1.4-1.06-1.54-1.06h0c-.64.02-6.89,8.91-7.13,10.42-.18-2.16-6.47-10.42-7.12-10.42h0c-.29.01-.77,1.26-1.26,1.26-.18,0-.36-.17-.53-.62h0c-.09-.26-.19-.6-.27-1.04-.24-1.23-.01-2.05.44-2.78,1.06-1.68,3.38-2.79,3.94-7.1.82-6.27-.73-29.4-.28-38.39-.39-1.19-5.39-1.44-6.72-1.51-.35-.02-.73-.03-1.13-.03-3.28,0-8.25.52-11.47.52-1.76,0-2.99-.15-3.17-.63-.15-.43.88-2.4.41-2.61,0,0,0,0-.01,0-.09,0-.45.2-.88.48.35-1.06.39-2.37.4-3.39.36-.42.72-.9,1.05-1.47,1.65,1.19,1.29,4.6,3.57,4.67h.01c1.12,0,16.12-3.09,17.13-8.92.07-.4.12-1.03.16-1.85.37-7.49-.34-31.29-.55-48.32-.04-3.79-.06-7.24-.04-10.1.02-2.4.07-4.39.15-5.82l6.17-8.63M135.18,37.12h-.03c-.96.01-1.85.48-2.41,1.26l-6.17,8.63c-.33.46-.52,1-.55,1.56-.09,1.43-.14,3.44-.16,5.97-.02,2.65-.01,5.97.04,10.16.07,5.56.19,11.9.31,18.02.24,12.38.49,25.17.24,30.12-.04.99-.1,1.39-.12,1.49-.44,2.57-9.54,5.62-13.45,6.31-.04-.11-.09-.23-.12-.33-.42-1.11-.99-2.62-2.42-3.66-.51-.37-1.13-.56-1.75-.56-.21,0-.42.02-.63.07-.83.18-1.54.7-1.97,1.43-.2.35-.44.68-.72,1-.47.54-.73,1.23-.73,1.95,0,.53-.01,1.77-.24,2.46-.3.89-.16,1.84.34,2.59-.05.47-.02.97.17,1.5.94,2.62,4.1,2.62,5.99,2.62,1.7,0,3.82-.13,5.88-.27,1.99-.13,4.04-.26,5.6-.26.35,0,.68,0,.98.02,1.88.1,3.07.24,3.81.36-.08,4.32.1,10.5.28,16.51.24,8.1.5,16.48.08,19.64-.28,2.18-1.08,3.04-2.08,4.12-.49.53-.99,1.07-1.43,1.76-.94,1.48-1.22,3.1-.85,4.96.1.52.22.97.35,1.36.02.05.03.1.05.15.89,2.39,2.78,2.58,3.34,2.58.38,0,.72-.06,1.03-.16,1.67,2.13,4.03,5.55,4.38,6.71.19,1.44,1.39,2.55,2.86,2.61.04,0,.08,0,.11,0,1.39,0,2.6-.96,2.92-2.3.47-1.15,3.05-4.98,4.73-7.21.32.09.66.15,1.03.15.03,0,.07,0,.1,0,.9-.01,1.78-.4,2.44-1.09,1.2-1.26,1.3-3.16,1.24-4.85-.04-1.35-.53-2.58-1.5-3.75-.3-.36-.6-.68-.9-.99-.97-1.01-1.74-1.8-2.01-3.8-.39-2.87-.13-14.08.08-23.09.12-5.09.23-9.95.24-13.31.73-.13,1.93-.27,3.83-.37.62-.03,1.25-.05,1.88-.05,2.34,0,4.52.21,6.44.39,1.56.15,2.9.27,4.1.27,1.01,0,3.68,0,5.18-2.04.5-.68.79-1.47.87-2.36.43-.71.56-1.58.33-2.4-.17-.6-.26-1.29-.35-2.02-.06-.46-.12-.92-.2-1.39-.09-.53-.32-1.03-.67-1.44-.19-.22-.34-.41-.47-.6-.58-.79-1.49-1.23-2.43-1.23-.34,0-.68.06-1.02.18-2.3.83-3,2.92-3.38,4.07-3.76-.72-12.3-3.62-13.16-5.55-.03-.15-.11-.7-.17-2.2-.29-6.23-.06-20.72.15-34.73.07-4.46.14-8.85.19-12.85.05-4.22.07-7.17.07-9.57,0-3.45-.04-5.72-.12-7.15-.03-.59-.24-1.15-.59-1.62l-6.45-8.63c-.57-.76-1.46-1.21-2.4-1.21h0Z"/>
          </g>
        </g>
        <path class="cls-2" d="M45.22,7.67h186.02c6.42,0,11.63,5.21,11.63,11.63v155.2c0,12.04-3.47,23.82-10.04,33.91-14.4,22.08-44.98,56.32-96.2,56.32s-81.38-33.77-95.89-55.86c-6.83-10.39-10.27-22.64-10.03-35.07l2.89-154.71c.12-6.34,5.29-11.41,11.62-11.41Z"/>
      </g>
      <g>
        <g>
          <path class="cls-5" d="M226.58,216.64c4.94-1.47,9.74-3.36,14.42-5.71l-14.42-11.41v17.11Z"/>
          <path class="cls-5" d="M32.55,250.29s-.05-.06-.08-.09c-.06-.06-.11-.13-.15-.2-.02-.04-.04-.07-.06-.11-.04-.08-.07-.15-.1-.24-.01-.04-.03-.07-.04-.11-.03-.12-.05-.24-.05-.37v-16.34c-11.06,2.75-21.58,7.22-32.07,13.62,5.96,1.47,11.99,3.68,18,6.59.42.21.73.59.84,1.05.11.46,0,.94-.28,1.32-5.97,7.87-11.73,16-17.49,24.69,15.16-8.79,30.46-13.7,47.43-15.26l-15.91-14.51s-.02-.03-.04-.04Z"/>
          <path class="cls-5" d="M259.24,209.35c-.42-.21-.73-.59-.84-1.05-.11-.46,0-.94.28-1.32,5.97-7.87,11.73-16,17.49-24.69-15.05,8.72-30.24,13.62-47.05,15.23l15.76,12.46s.05.06.08.08c.04.04.08.07.11.11.05.06.1.12.14.19.03.04.06.08.08.12.04.07.07.15.1.23.01.04.03.08.04.12.03.12.05.25.05.38v18.27c10.95-2.75,21.37-7.2,31.77-13.55-5.96-1.47-11.99-3.68-18-6.59Z"/>
          <path class="cls-5" d="M50.65,243.83c-4.89,1.47-9.64,3.37-14.28,5.7l14.28,13.02v-18.72Z"/>
          <path class="cls-5" d="M35.22,246.59c13.18-6.58,27.23-9.78,42.86-9.78,20.44,0,41.1,5.51,61.09,10.84,19.79,5.28,40.26,10.74,60.28,10.74,15.69,0,29.72-3.33,42.87-10.17v-34.42c-13.19,6.58-27.24,9.78-42.87,9.78-20.44,0-41.11-5.51-61.09-10.84-19.79-5.28-40.25-10.74-60.28-10.74-15.69,0-29.72,3.33-42.86,10.17v34.42Z"/>
        </g>
        <g>
          <path class="cls-1" d="M35.51,239.67c13.18-6.58,27.23-9.78,42.86-9.78,20.44,0,41.1,5.51,61.09,10.84,19.79,5.28,40.26,10.74,60.28,10.74,15.69,0,29.72-3.33,42.87-10.17v-2.3"/>
          <path class="cls-3" d="M77.5,220.78l-.14,4.87,3.39,1.65-5.19,3.25-3.24-2.2.55-14.95-3.06-2.23,4.66-2.99,3.49,2.64-.21,6.93,6.35.11.14-4.46-3.27-2.32,5-2.55,3.26,2.75-.49,14.81,3.07,1.82-4.75,2.88-3.44-2.38.25-7.51-6.38-.11Z"/>
          <path class="cls-3" d="M95.94,231.86l-4.5-3.02,1.44-9.79,7.63-3.28,4.41,2.81-1.49,10.34-7.49,2.95ZM99.02,229.1l1.35-9.15-3.16-1.31-1.31,8.87,3.12,1.6Z"/>
          <path class="cls-3" d="M113.66,231.23l1.9-8.67-1.83-1.86,4.61-1.38,1.93,2.39-2.1,9.63,2.09,2.18-4.43,1.65-2.52-2.57-4.24,1.16-3.11-2.96,2.28-9.77-2.46-1.99,5.18-1.26,1.99,2.4-2.16,9.21,2.87,1.84Z"/>
          <path class="cls-3" d="M121.54,228.79l1.26-4.95,6.53-2.23,3.89,3.21-3,1.61-3.17-2.52-.79,3.06,4.72,3-1.35,5.16-6.64,1.81-3.84-3.29,3.49-1.64,2.91,2.61.77-2.83-4.78-3.01Z"/>
          <path class="cls-3" d="M141.76,225.13l3.08,4.24-.84,2.93h-6.75s-.81,2.82-.81,2.82l5.64,4.41-6.33.99-4.35-4.07,2.88-9.59,7.48-1.73ZM137.76,230.46l2.98-.47-2.08-2.77-.89,3.24Z"/>
          <path class="cls-3" d="M153.79,226.15l-4.12-1.24,4.94-2.29,12.76,3.73-4.46,2.77-4.42-1.34-1.27,4.73,5.54,1.39-2.6,2.85-3.97-.99-1.25,4.74,6.98,3.15-5.82,2.1-6.82-3.2,4.49-16.4Z"/>
          <path class="cls-3" d="M168.27,248.6l-4.24-3.63,1.99-9.22,3.75-1.47-4.85-5.76,4.29-1.66,8.51,10.4-1.89,9.44-7.57,1.89ZM171.49,246.11l1.67-7.89-2.66-2.99-1.94,8.64,2.92,2.24Z"/>
          <path class="cls-3" d="M187.24,235.08l3.62,3.78-.44,3.01-6.69.92-.42,2.9,6.18,3.61-6.13,1.83-4.86-3.44,1.56-9.89,7.18-2.73ZM184,240.9l2.89-.87-2.44-2.47-.45,3.33Z"/>
          <path class="cls-3" d="M197.81,239.57l-.11,8.41,2.11,1.67-4.22,2.29-2.34-1.81.12-9.8-2.66-2.05,4.54-2.41,2.63,2.28,4.1-2.24,3.44,2.23-.24,9.89,2.6,1.44-4.69,2.52-2.37-1.81.23-9.25-3.15-1.35Z"/>
        </g>
      </g>
    </g>
  </g>
</svg>