<?xml version="1.0" encoding="UTF-8"?>
<svg id="Layer_2" xmlns="http://www.w3.org/2000/svg" viewBox="0 0 277.24 273.99">
  <defs>
    <style>
      .cls-1 {
        fill: none;
      }

      .cls-2 {
        fill: #fff;
      }

      .cls-3 {
        fill: #3f0000;
      }

      .cls-4 {
        fill: #1f1f1f;
      }

      .cls-5 {
        fill: #840000;
      }
    </style>
  </defs>
  <g id="Layer_3">
    <g>
      <g>
        <path class="cls-3" d="M137.48,255.49c-1.86-1.8-5.47-4.39-12.27-6.79-1.78-.63-4.8-1.39-8.98-2.45-20.82-5.26-69.58-17.59-69.58-43.25V13.57C85.31,2.84,123.63,2,134.56,2c1.85,0,2.85.02,2.87.02h.11s1.02-.02,2.87-.02c10.93,0,49.25.84,87.91,11.57v189.43c0,25.67-48.76,37.99-69.58,43.25-4.18,1.06-7.2,1.82-8.98,2.45-6.8,2.4-10.42,4.99-12.27,6.79Z"/>
        <path d="M140.4,0v4s0,0,0,0c10.73,0,48,.82,85.91,11.1v187.9c0,24.11-47.7,36.17-68.07,41.32-4.23,1.07-7.29,1.84-9.15,2.5-5.7,2.01-9.33,4.2-11.61,6.02-2.28-1.83-5.91-4.01-11.61-6.02-1.86-.66-4.92-1.43-9.15-2.5-20.37-5.15-68.07-17.21-68.07-41.32V15.1C86.56,4.82,123.83,4,134.56,4c1.81,0,2.81.02,2.82.02h.06s.05,0,.05,0h.1s1.01-.03,2.82-.03V0M140.4,0c-1.89,0-2.92.03-2.92.03h0s-1.02-.03-2.92-.03c-10.86,0-50.39.83-89.91,12.06v190.94c0,32.23,69.02,43.75,79.89,47.59,10.88,3.84,12.93,8.02,12.93,8.02h0s2.06-4.18,12.93-8.02c10.88-3.84,79.89-15.36,79.89-47.59V12.06C190.78.83,151.26,0,140.4,0h0Z"/>
      </g>
      <g>
        <path class="cls-2" d="M116.89,126.83c-2.62-.31-5.23-.62-8.41-1,.02.04-.52-.55-.49-1.1.28-4.37-2.32-4.76-5.76-4.6-2.66.13-5.34-.28-8.01-.46-.12-.54-.23-1.08-.35-1.63,1.5-1.08,3-2.15,4.52-3.24-.04-.11-.07-.51-.27-.62-1.7-.96-3.43-1.86-5.15-2.78,1.59-2.39,2.94-5.02,4.89-7.08.93-.99,2.99-.9,3.72-1.09-1.83-3-4.56-5.7-5.16-8.81-1.31-6.75-4.92-11.9-9.24-16.82-2.63-2.99-2.73-3.7-.97-8.29.7.06,1.51.05,2.28.21.79.16,1.55.49,3.44,1.12-1.79-5.73-3.16-10.57-7-14.43-1.04-1.04-1.6-2.55-2.38-3.85,1.54-.58,3.08-1.17,4.78-1.81-.5-.84-1.34-2.25-2.2-3.7,6.45-2.95,11.94-1.9,16.11,2.61,4.88,5.29,8.59,10.79,9.95,18.35,1.01,5.62,5.1,10.7,7.87,16.13,4.73-3.95,9.1-7.6,12.67-10.58-1.43-2.55-3.36-4.8-3.98-7.37-.81-3.33-2.96-3.62-5.5-3.8-5.02-.35-8.57-2.75-9.93-7.65-.49-1.75-.08-3.75-.08-6.94,5.25,3.89,9.59,7.11,14.8,10.98-1.08-4.31-1.22-7.62-2.69-10.17-2.47-4.29.18-5.9,2.88-8.08,2.35-1.9,4.69-3.99,6.47-6.4,3.3-4.47,7.29-5.97,12.72-4.23.72.23,1.59.17,2.37.04,7.69-1.25,14.48,2.21,18.14,9.09.85,1.6,2.22,2.91,3.68,4.78,1.07-2.02,1.73-3.15,2.29-4.33,1.43-2.96,3.46-4,6.33-1.9,3.06,2.24,5.09,1.24,6.84-1.74,1.18-2.01,2.42-3.94,5.49-3.12,4.95,1.31,6.12,3.59,3.88,8.3-2.59,5.45-2.72,5.65,2.25,8.84,2.6,1.67,2.93,3.28,1.51,5.71-.83,1.41-1.62,2.85-2.75,4.86-2.9-1.73-5.54-3.3-8.37-4.99-1.14,1.41-2.27,2.77-3.37,4.16-2.23,2.84-3.59,5.23-1.28,9.3,3.91,6.89.9,12.8-4.44,16.89,1.11,6.24,2.91,11.9,2.92,17.56.01,6.08-1.43,12.16-8.07,15.32-1.12.53-1.94,3.16-1.76,4.7.76,6.76,1.55,13.56,3.06,20.17,1.98,8.69,11.69,15.51,20.38,15.3,3.58-.09,5.67-1.65,5.21-5.04-.88-6.5-1.94-13.03-3.65-19.35-1.21-4.44-4.44-8.39-5.32-12.84-1.19-6.07-.92-12.42-1.44-18.64-.19-2.25-.42-4.7-1.43-6.63-3.13-5.92-3.2-6.02,4.54-7.27-1.21-3.76-2.38-7.41-3.55-11.07.22-.4.43-.8.65-1.2,2.89.98,5.78,1.96,8.02,2.72,3.13-3.44,5.89-7.41,9.58-10.12,1.98-1.45,6.17-1.81,8.22-.65,1.68.96,2.56,5.02,2.21,7.48-.55,3.85-3.55,4.99-7.49,2.61-1.36,3.25-2.48,5.95-3.46,8.3,1.98.87,3.64,1.59,5.3,2.31-.82,1.55-1.48,3.22-2.49,4.63-2.28,3.22-4.81,6.26-7.1,9.47-4.28,6.01-3.74,10.31-.32,17.12,5.49,10.93,9.33,22.63,7.12,35.03-3.19,17.87-15.44,18.33-27.83,11.22-6.98-4-12.39-9.8-16.64-16.77.69,7.17,3.81,13.13,8.37,18.53,2.29,2.71,4.05,5.86,6.34,8.57,3.19,3.78,1.06,6.49-1.57,9.02-5.15,4.96-10.51,9.71-15.64,14.69-1.75,1.7-3.5,3.62-4.52,5.79-1.52,3.24-2.98,2.32-4.74.51-4.58,3.94-7.85,10-15.99,8.87.67-1.64,1.19-2.89,1.71-4.17-2.27-1.73-6.66,3.81-7.79-2.45-2.69,1.05-5.25,2.05-8.24,3.21-.6-4.37,2.48-5.87,4.62-7.78,4.47-4,9.86-5.51,15.79-6,5.76-.48,10.36-3.52,13.41-8.5,2.76-4.5,2.01-7.75-2.44-10.58-2.38-1.51-4.93-2.83-7.55-3.87-10.69-4.25-13.63-13.27-14.69-23.49-.06-.6,0-1.21-.8-2.1-2.69,4.4-5.38,8.81-8.4,13.74,3.05.64,5.18,1.09,7.31,1.54.05.45.11.9.16,1.34-1.9.38-3.78.96-5.7,1.12-5.27.42-7.36,2.88-6.31,8.17.7,3.54,2.05,6.96,2.74,10.5.38,1.95.18,4.08-.18,6.05-.08.44-2.38,1.11-2.91.71-1.61-1.24-2.85-2.95-4.24-4.48.37-.36.74-.73,1.11-1.09,1.16.68,2.32,1.36,4.1,2.39-1.31-4.12-2.44-7.67-3.81-12-1.4,1.86-2.87,2.94-3.04,4.2-.82,6.28-7,8.72-9.53,13.83-2.65,5.35-6.13,10.29-9.38,15.31-1.62,2.51-3.99,3.74-6.81,1.9-2.84-1.85-4.03-4.6-2.21-7.71,3.77-6.45,7.78-12.75,11.88-19.43-3.95-3.64-7.68-7.42-11.83-10.68-1.13-.89-3.49-.13-5.28-.27-2.43-.19-5.03-.03-7.23-.87-3.81-1.47-7.38-3.59-11.29-5.56.49-3.82,4.04-2.78,6.56-4.46-2.68-.42-5.36-.84-8.02-1.26,1.7-7.14,7.32-9.53,14.51-5.67-2.41.22-4.23.39-6.05.56v.68c.97-.08,1.95-.09,2.9-.25,5.26-.87,10.01-.02,14.6,3.02,2.07,1.38,5.01,1.78,7.61,1.98,5.85.45,6.66-.63,4.92-6.13-.95-3.01-2.06-5.99-3.42-8.84-1.64-3.43-.98-6.08,2.58-7.14,4.4-1.31,8.97-2.09,13.51-2.86,2.9-.49,5.87-.54,8.94-.8-1.04-4.04-1.94-7.52-2.84-11,1.24,1.4,2.7,2.67,3.66,4.24,1.42,2.32,2.48,4.86,4.28,8.47,2.78-4.74,4.87-8.29,6.95-11.83-.27-.54-.54-1.09-.8-1.63-4.68.27-9.37.54-14.05.8ZM155.96,130.16c-2.81,3.23-3.57,3.28-9.03,2.55-1.77-.24-4.73-.18-5.32.82-3.78,6.39-9.45,12.12-5.82,21,3.39,8.29,5.01,17.45,15.77,19.72,1.74.37,3.35,1.44,4.95,2.32,6.55,3.6,7.76,9.49,3.16,15.31-1.02,1.3-1.99,2.75-3.31,3.68-4.66,3.26-9.45,6.32-14.17,9.44.58,2.17,1.27,4.76,2.07,7.79.94-2.94,1.72-5.38,2.79-8.75,1.32,1.72,1.85,2.4,2.36,3.07,11.73-6.55,19.6-17.17,29.84-26.26-3.25-2.09-5.57-3.59-8.2-5.28.93-.85,1.65-1.52,2.37-2.18-11.8-12.7-14.82-29.3-9.06-35.59.27.18.59.32.8.55.22.24.41.55.48.86,3.33,14.84,13.58,23.04,27.06,28.03,3.4,1.26,6.69.35,9.22-2.18,3.91-3.91,6.22-8.63,5.96-14.3-.48-10.44-3.15-20.34-8.05-29.54-4.35-8.19-3.98-14.22,1.98-21.46,2.19-2.66,4.57-5.16,7.16-8.07-1.93.48-3.37.84-6.16,1.54,2.02-5.32,3.43-9.67,5.37-13.77.66-1.4,2.68-3.06,4.06-3.05,2.87.02,4.07-1.28,3.13-3.44-.49-1.11-3.34-2.15-4.69-1.74-4.07,1.22-6.45,4.49-7.71,8.5-.91,2.88-1.69,5.79-2.84,9.73-1.79-3.15-2.97-5.24-4.15-7.33-.19.11-.38.23-.57.34.35,4,.7,7.99,1.14,12.89-2.38-1.41-3.78-2.23-4.4-2.6.28,4.12,1.2,8.38.72,12.48-.94,7.94.98,14.97,4.18,22.13,2.88,6.45,5.37,13.26,6.7,20.18,2,10.43-2.57,14.77-13.02,13.4-2.23-.29-4.61-1.18-6.45-2.46-7.67-5.35-12.97-12.28-13.76-22.04-.43-5.35-1.19-10.67-1.77-15.71-6.15,2.27-11.59,4.28-17.04,6.29,1.08.8,2.5,1.85,4.25,3.14ZM173.91,115.81c5.82-7.91,5.98-15.81,2.77-24.09-1.53-3.95-6.07-4.92-8.83-1.67-2.03,2.39-4.17,4.92-5.32,7.77-1.8,4.45-5.04,5.83-9.33,6.01-9.3.4-18.62.66-27.9,1.28-6.94.47-13.87,1.29-20.77,2.21-2.21.29-4.34,1.39-1.99,4.41h8.92c.03.38.05.76.08,1.14-2.97,1.05-5.95,2.1-8.92,3.15.13.36.26.72.39,1.07,5.74.5,11.5.82,17.19,1.62,1.48.21,2.75,1.91,4.11,2.92-.17.36-.34.72-.52,1.08,8.18.31,15.78,2.35,22.55,7.11,1.06.74,2.68.68,4.73,1.14-2.44-3.08-4.34-5.47-6.72-8.48,11.14.85,19.4-2.41,26.44-9.2,1.02.82,1.88,1.51,3.14,2.52ZM121.84,100.58c1.87-.98,2.98-1.37,3.86-2.05,6.4-4.96,13.23-8.6,21.57-9.37,3.22-.3,7.52-1.65,9.17-4.03,5.47-7.88,10.28-16.28,14.7-24.81,3.23-6.23.8-9.61-5.47-10.38-2.18,4.7-3.76,9.35-6.35,13.35-3.11,4.79-8.3,8.1-13.78,7.8-9.34-.52-24.2,12.08-24.72,23.55-.08,1.79.6,3.62,1.03,5.93ZM99.8,182.9c8.16-13.95,16.05-27.42,23.93-40.9-.29-.38-.57-.76-.86-1.13-8.59.37-17.3-.25-25.8,3.59,1.65,4.73,3.44,9,4.62,13.43,1.7,6.35-.93,9.24-7.45,8.28-7.6-1.12-15.16-2.57-22.64-3.86.66,1.76,1.39,3.72,2.28,6.13.7.2,2.14.61,4.56,1.3-1.88,1.3-2.76,1.92-3.65,2.54,10.67-2.69,17.33,3.83,25.02,10.62ZM94.21,76.76c-2.34-1.69-4.12-2.98-5.9-4.27-.4.27-.81.54-1.21.81,6.35,6.35,12.6,12.75,12.76,22.08,2.02.67,3.68,1.61,4.74,3,1.91,2.5,9.4,4.56,12.09,2.91.61-.37,1.27-1.33,1.23-1.97-.24-3.77.28-7.98-1.23-11.22-5.04-10.81-10.82-21.28-16.35-31.86-.9-1.72-2.01-3.33-3.02-5-3.92,3.06-3.87,4.73-1.67,6.9,1.85,1.83,3.29,4.07,5.03,6.27-5.47,3.13-5.78-2.01-8.72-4,1.11,5.65,5.16,10.19,2.28,16.34ZM155.41,33.55c-4.65-4.56-10.01,5.85-14.69-2.45-2.28,3.12-3.96,5.58-5.81,7.9-.94,1.18-2.05,2.36-3.32,3.13-1.36.82-3.02,1.16-4.6,1.72.73,3.28,1.37,6.14,1.8,8.07,3.4-.59,6.04-1.53,8.6-1.39,3.96.23,7.62,4.64,7.63,8.65.02,4.18-2.29,6.23-6.4,6.74-2.35.29-4.64,1.11-6.96,1.69l.09,1.22c1.43,0,2.87.11,4.28-.02,2.8-.27,5.59-.92,8.39-.98,8.25-.16,14.96-6.76,15.17-15.23-1.08-.49-2.16-.99-3.51-1.6,2.8-4.32,8.13-6.55,8.27-13.49-5.42.41-10.51.79-15.59,1.18-.17-.24-.33-.49-.5-.73,2.33-1.45,4.66-2.89,7.13-4.42ZM152.83,90.92c-9.81,2.28-18.84,4.97-26.63,10.82,4.26.34,8.4-.35,12.42.08,8.03.86,11.59-3.66,14.22-10.89ZM180.39,70.88c-.67-.09-1.35-.19-2.02-.28-2.56,4.46-5.11,8.93-7.95,13.87,5.7.52,8.4-3.05,10.46-6.33,1.04-1.66-.25-4.79-.49-7.26ZM130.64,62.15c3.77,2.65,9.44.96,10.85-2.32-3.73.8-7.29,1.56-10.85,2.32ZM132.39,57.65c2.76-.35,5.11-.65,7.94-1.02-4.3-4.71-5.94-4.53-7.94,1.02ZM175.41,52.39c2.78-4.46,2.77-4.49-2.23-6.38.76,2.18,1.43,4.07,2.23,6.38ZM113.99,121.68c.04-.34.08-.67.12-1.01h-3.22c-.01.34-.02.67-.04,1.01h3.14ZM136.79,205.54c-.07-.43-.13-.85-.2-1.28-1.18.25-2.35.5-3.53.76.04.29.09.58.13.87,1.2-.12,2.4-.24,3.6-.35ZM115.88,53.88c-.3.28-.6.56-.9.85.62.58,1.25,1.15,1.87,1.72.21-.21.42-.42.63-.63l-1.61-1.94Z"/>
        <path class="cls-5" d="M155.96,130.16c-1.75-1.3-3.18-2.35-4.25-3.14,5.45-2.01,10.89-4.02,17.04-6.29.58,5.04,1.34,10.36,1.77,15.71.78,9.77,6.08,16.69,13.76,22.04,1.84,1.28,4.21,2.17,6.45,2.46,10.45,1.37,15.01-2.98,13.02-13.4-1.32-6.91-3.81-13.73-6.7-20.18-3.2-7.16-5.12-14.19-4.18-22.13.49-4.1-.44-8.37-.72-12.48.63.37,2.02,1.19,4.4,2.6-.43-4.9-.78-8.89-1.14-12.89.19-.11.38-.23.57-.34,1.18,2.09,2.37,4.18,4.15,7.33,1.14-3.94,1.93-6.86,2.84-9.73,1.26-4,3.64-7.28,7.71-8.5,1.35-.4,4.2.63,4.69,1.74.94,2.16-.25,3.46-3.13,3.44-1.38-.01-3.39,1.65-4.06,3.05-1.94,4.1-3.35,8.45-5.37,13.77,2.79-.7,4.23-1.06,6.16-1.54-2.59,2.91-4.97,5.41-7.16,8.07-5.96,7.24-6.33,13.28-1.98,21.46,4.9,9.21,7.57,19.1,8.05,29.54.26,5.68-2.04,10.4-5.96,14.3-2.53,2.53-5.83,3.44-9.22,2.18-13.48-4.99-23.73-13.19-27.06-28.03-.07-.31-.26-.62-.48-.86-.21-.23-.53-.37-.8-.54-5.76,6.28-2.73,22.88,9.07,35.58-.72.66-1.44,1.33-2.37,2.18,2.63,1.69,4.95,3.19,8.2,5.28-10.24,9.09-18.11,19.7-29.84,26.26-.51-.67-1.03-1.34-2.36-3.07-1.08,3.37-1.85,5.8-2.79,8.75-.81-3.04-1.5-5.63-2.07-7.79,4.72-3.12,9.51-6.18,14.17-9.44,1.32-.92,2.29-2.38,3.31-3.68,4.6-5.82,3.38-11.71-3.16-15.31-1.6-.88-3.21-1.95-4.95-2.32-10.76-2.28-12.38-11.44-15.77-19.72-3.64-8.88,2.04-14.61,5.82-21,.59-1,3.55-1.05,5.32-.82,5.47.73,6.22.68,9.03-2.55Z"/>
        <path class="cls-5" d="M173.91,115.81c-1.26-1.01-2.11-1.7-3.14-2.52-7.03,6.79-15.29,10.05-26.44,9.2,2.38,3.01,4.28,5.4,6.72,8.48-2.05-.46-3.67-.4-4.73-1.14-6.77-4.76-14.36-6.81-22.55-7.11.17-.36.34-.72.52-1.08-1.36-1.01-2.63-2.71-4.11-2.92-5.69-.8-11.46-1.12-17.19-1.62-.13-.36-.26-.72-.39-1.07,2.97-1.05,5.95-2.1,8.92-3.15-.03-.38-.05-.76-.08-1.14h-8.92c-2.35-3.02-.21-4.11,1.99-4.41,6.9-.92,13.83-1.75,20.77-2.21,9.29-.62,18.6-.88,27.9-1.28,4.29-.18,7.53-1.56,9.33-6.01,1.15-2.85,3.29-5.38,5.32-7.77,2.76-3.25,7.29-2.28,8.83,1.67,3.21,8.27,3.05,16.18-2.77,24.09Z"/>
        <path class="cls-5" d="M121.84,100.58c-.42-2.31-1.11-4.14-1.03-5.93.53-11.47,15.38-24.06,24.72-23.55,5.48.3,10.67-3.01,13.78-7.8,2.59-4,4.17-8.65,6.35-13.35,6.27.77,8.69,4.15,5.47,10.38-4.42,8.53-9.23,16.92-14.7,24.81-1.65,2.37-5.94,3.73-9.17,4.03-8.35.77-15.17,4.41-21.57,9.37-.88.68-1.99,1.07-3.86,2.05Z"/>
        <path class="cls-5" d="M99.8,182.9c-7.69-6.79-14.35-13.31-25.02-10.62.89-.62,1.78-1.24,3.65-2.54-2.42-.69-3.85-1.1-4.56-1.3-.9-2.41-1.63-4.37-2.28-6.13,7.48,1.29,15.04,2.74,22.64,3.86,6.52.96,9.15-1.93,7.45-8.28-1.18-4.43-2.97-8.7-4.62-13.43,8.51-3.84,17.22-3.21,25.8-3.59.29.38.57.76.86,1.13-7.88,13.47-15.77,26.95-23.93,40.9Z"/>
        <path class="cls-5" d="M94.21,76.76c2.88-6.16-1.17-10.69-2.28-16.34,2.95,1.98,3.25,7.12,8.72,4-1.73-2.2-3.17-4.45-5.03-6.27-2.19-2.16-2.24-3.84,1.67-6.9,1.01,1.66,2.12,3.27,3.02,5,5.54,10.58,11.31,21.05,16.35,31.86,1.51,3.24.99,7.44,1.23,11.22.04.64-.62,1.6-1.23,1.97-2.69,1.65-10.17-.41-12.09-2.91-1.07-1.39-2.72-2.33-4.74-3-.16-9.33-6.4-15.73-12.76-22.08.4-.27.81-.54,1.21-.81,1.78,1.29,3.57,2.58,5.9,4.27Z"/>
        <path class="cls-5" d="M155.41,33.55c-2.46,1.53-4.79,2.97-7.13,4.42.17.24.33.49.5.73,5.08-.38,10.17-.77,15.59-1.18-.14,6.93-5.48,9.17-8.27,13.49,1.35.61,2.43,1.11,3.51,1.6-.21,8.46-6.92,15.07-15.17,15.23-2.8.05-5.59.71-8.39.98-1.41.14-2.85.02-4.28.02l-.09-1.22c2.32-.58,4.61-1.4,6.96-1.69,4.11-.51,6.42-2.56,6.4-6.74-.02-4.01-3.68-8.42-7.63-8.65-2.57-.15-5.2.79-8.6,1.39-.43-1.93-1.07-4.8-1.8-8.07,1.58-.57,3.23-.9,4.6-1.72,1.28-.77,2.38-1.94,3.32-3.13,1.85-2.33,3.53-4.78,5.81-7.9,4.67,8.29,10.03-2.12,14.69,2.45ZM147.34,42.57c-4.96-2.76-6.52-2.42-8.92,1.72,4.23,3.7,4.83,3.6,8.92-1.72ZM160.81,42.54c.06-.76.13-1.51.19-2.27-2.15-.12-4.31-.23-6.46-.35-.04.63-.08,1.27-.13,1.9,2.13.24,4.26.48,6.39.72Z"/>
        <path class="cls-5" d="M152.83,90.92c-2.63,7.23-6.19,11.75-14.22,10.89-4.02-.43-8.16.26-12.42-.08,7.8-5.84,16.82-8.53,26.63-10.82Z"/>
        <path class="cls-5" d="M116.89,126.83c4.68-.27,9.37-.54,14.05-.8.27.54.54,1.09.8,1.63-2.08,3.55-4.17,7.09-6.95,11.83-1.8-3.61-2.86-6.15-4.28-8.47-.96-1.57-2.42-2.84-3.66-4.24l.03.05Z"/>
        <path class="cls-5" d="M180.39,70.88c.24,2.47,1.53,5.59.49,7.26-2.06,3.29-4.76,6.86-10.46,6.33,2.84-4.95,5.39-9.41,7.95-13.87.67.09,1.35.19,2.02.28Z"/>
        <path class="cls-5" d="M130.64,62.15c3.56-.76,7.12-1.52,10.85-2.32-1.41,3.28-7.08,4.98-10.85,2.32Z"/>
        <path class="cls-5" d="M132.39,57.65c2-5.55,3.64-5.73,7.94-1.02-2.83.36-5.18.66-7.94,1.02Z"/>
        <path class="cls-5" d="M175.41,52.39c-.81-2.31-1.47-4.2-2.23-6.38,5,1.88,5.01,1.91,2.23,6.38Z"/>
        <path class="cls-5" d="M113.99,121.68h-3.14c.01-.34.02-.67.04-1.01h3.22c-.04.34-.08.67-.12,1.01Z"/>
        <path class="cls-5" d="M136.79,205.54c-1.2.12-2.4.24-3.6.35-.04-.29-.09-.58-.13-.87,1.18-.25,2.35-.5,3.53-.76.07.43.13.85.2,1.28Z"/>
        <path class="cls-5" d="M115.88,53.88l1.61,1.94c-.21.21-.42.42-.63.63-.62-.58-1.25-1.15-1.87-1.72.3-.28.6-.56.9-.85Z"/>
        <path class="cls-2" d="M147.34,42.57c-4.09,5.32-4.69,5.42-8.92,1.72,2.4-4.14,3.95-4.49,8.92-1.72Z"/>
        <path class="cls-2" d="M160.81,42.54c-2.13-.24-4.26-.48-6.39-.72.04-.63.08-1.27.13-1.9,2.15.12,4.31.23,6.46.35-.06.76-.13,1.51-.19,2.27Z"/>
      </g>
      <g>
        <g>
          <path class="cls-4" d="M226.58,210.53c4.94-1.47,9.74-3.36,14.42-5.71l-14.42-11.41v17.11Z"/>
          <path class="cls-4" d="M32.55,244.17s-.05-.06-.08-.09c-.06-.06-.11-.13-.15-.2-.02-.04-.04-.07-.06-.11-.04-.08-.07-.15-.1-.24-.01-.04-.03-.07-.04-.11-.03-.12-.05-.24-.05-.37v-16.34c-11.06,2.75-21.58,7.22-32.07,13.62,5.96,1.47,11.99,3.68,18,6.59.42.21.73.59.84,1.05.11.46,0,.94-.28,1.32-5.97,7.87-11.73,16-17.49,24.69,15.16-8.79,30.46-13.7,47.43-15.26l-15.91-14.51s-.02-.03-.04-.04Z"/>
          <path class="cls-4" d="M259.24,203.24c-.42-.21-.73-.59-.84-1.05-.11-.46,0-.94.28-1.32,5.97-7.87,11.73-16,17.49-24.69-15.05,8.72-30.24,13.62-47.05,15.23l15.76,12.46s.05.06.08.08c.04.04.08.07.11.11.05.06.1.12.14.19.03.04.06.08.08.12.04.07.07.15.1.23.01.04.03.08.04.12.03.12.05.25.05.38v18.27c10.95-2.75,21.37-7.2,31.77-13.55-5.96-1.47-11.99-3.68-18-6.59Z"/>
          <path class="cls-4" d="M50.65,237.72c-4.89,1.47-9.64,3.37-14.28,5.7l14.28,13.02v-18.72Z"/>
          <path class="cls-4" d="M35.22,240.47c13.18-6.58,27.23-9.78,42.86-9.78,20.44,0,41.1,5.51,61.09,10.84,19.79,5.28,40.26,10.74,60.28,10.74,15.69,0,29.72-3.33,42.87-10.17v-34.42c-13.19,6.58-27.24,9.78-42.87,9.78-20.44,0-41.11-5.51-61.09-10.84-19.79-5.28-40.25-10.74-60.28-10.74-15.69,0-29.72,3.33-42.86,10.17v34.42Z"/>
        </g>
        <g>
          <path class="cls-1" d="M35.51,233.55c13.18-6.58,27.23-9.78,42.86-9.78,20.44,0,41.1,5.51,61.09,10.84,19.79,5.28,40.26,10.74,60.28,10.74,15.69,0,29.72-3.33,42.87-10.17v-2.3"/>
          <path class="cls-2" d="M72.61,214.79l.05,4.87,3.46,1.52-5.06,3.45-3.32-2.07-.04-14.97-3.15-2.11,4.54-3.18,3.59,2.5.07,6.93,6.35-.14-.04-4.47-3.36-2.19,4.9-2.75,3.36,2.62.1,14.82,3.14,1.7-4.63,3.06-3.53-2.24-.05-7.51-6.38.14Z"/>
          <path class="cls-2" d="M91.43,225.22l-4.58-2.89,1.16-9.82,7.53-3.5,4.49,2.68-1.19,10.37-7.4,3.16ZM94.42,222.36l1.09-9.19-3.19-1.22-1.06,8.9,3.16,1.51Z"/>
          <path class="cls-2" d="M109.09,224.17l1.73-8.7-1.87-1.83,4.58-1.46,1.98,2.35-1.92,9.67,2.13,2.14-4.4,1.74-2.56-2.52-4.22,1.24-3.17-2.9,2.09-9.81-2.49-1.95,5.15-1.36,2.03,2.36-1.98,9.24,2.91,1.79Z"/>
          <path class="cls-2" d="M116.93,221.6l1.21-4.96,6.51-2.3,3.93,3.17-2.98,1.64-3.19-2.49-.76,3.07,4.75,2.95-1.29,5.18-6.62,1.88-3.88-3.25,3.47-1.68,2.93,2.58.73-2.84-4.81-2.96Z"/>
          <path class="cls-2" d="M137.17,217.8l3.09,4.23-.83,2.93-6.75.03-.8,2.82,5.66,4.39-6.32,1.01-4.37-4.05,2.84-9.6,7.48-1.76ZM133.19,223.14l2.97-.48-2.09-2.77-.88,3.25Z"/>
          <path class="cls-2" d="M149.43,236.68l-7.94,4.78-.94-1.11,3.63-3.66,4.49-16.57-2.45-2.89,5.24-1.8,2.77,3.39-4.8,17.86Z"/>
          <path class="cls-2" d="M161.11,237.1l2.15-8.61-1.78-1.92,4.65-1.24,1.86,2.44-2.38,9.57,2.03,2.24-4.48,1.52-2.44-2.64-4.27,1.04-3.03-3.05,2.56-9.7-2.4-2.06,5.21-1.11,1.92,2.46-2.42,9.14,2.82,1.93Z"/>
          <path class="cls-2" d="M172.34,243.28l-4.31-3.55,1.82-9.25,3.73-1.53-4.95-5.67,4.26-1.73,8.69,10.24-1.72,9.47-7.53,2.02ZM175.51,240.73l1.52-7.92-2.71-2.94-1.78,8.67,2.96,2.19Z"/>
          <path class="cls-2" d="M183.66,231.83l7.09-2.71,4.36,2.61-1.15,9.42,2.72,2.75-5.17,1.8-1.9-2.76-3.78,2.13-3.2-2.62.33-3.61,2.54-.67-1.84-6.34ZM186.71,237.93l3.45-.82.42-3.66-3.46-1.36-.41,5.85ZM189.99,239.04l-3.25.84,2.94,1.9.31-2.74Z"/>
          <path class="cls-2" d="M202.65,233.17l.29,8.58,2.2,1.64-4.09,2.51-2.45-2-.63-15.93-.93-4.95.62-.32,1.67,2.88,2.93-1.79.34,7.97,3.96-2.19,3.62,2.36.24,9.48,2.6,1.59-4.49,2.56-2.47-2-.2-9.31-3.21-1.07Z"/>
        </g>
      </g>
    </g>
  </g>
</svg>