<?xml version="1.0" encoding="UTF-8"?>
<svg id="Layer_2" xmlns="http://www.w3.org/2000/svg" xmlns:xlink="http://www.w3.org/1999/xlink" viewBox="0 0 277.24 318.04">
  <defs>
    <style>
      .cls-1, .cls-2 {
        fill: none;
      }

      .cls-3, .cls-4 {
        fill: #001149;
      }

      .cls-5 {
        fill: #3946b7;
      }

      .cls-6 {
        fill: #fff;
      }

      .cls-7 {
        fill: #fff800;
      }

      .cls-4, .cls-2 {
        stroke: #000;
        stroke-miterlimit: 10;
        stroke-width: 4px;
      }

      .cls-8 {
        fill: #1f1f1f;
      }

      .cls-9 {
        clip-path: url(#clippath);
      }
    </style>
    <clipPath id="clippath">
      <path class="cls-4" d="M140.4,302.74s-106.45-37.56-106.45-208.16c42.37-15.78,42.46-19.48,70.63-48.23,11.35,0,35.81,0,35.81,0h35.81c28.17,28.75,28.26,32.45,70.63,48.23,0,170.6-106.45,208.16-106.45,208.16Z"/>
    </clipPath>
  </defs>
  <g id="Layer_2-2" data-name="Layer_2">
    <g>
      <g>
        <path class="cls-3" d="M140.4,302.74s-106.45-37.56-106.45-208.16c42.37-15.78,42.46-19.48,70.63-48.23,11.35,0,35.81,0,35.81,0h35.81c28.17,28.75,28.26,32.45,70.63,48.23,0,170.6-106.45,208.16-106.45,208.16Z"/>
        <g class="cls-9">
          <g>
            <polygon class="cls-5" points="68.29 160.16 31.51 190.44 55.84 266.98 198.89 291.87 253.69 207.16 240.5 196.57 214.3 183.76 204.64 164.25 200.97 163.84 196.58 169.84 185.47 182.7 146.72 125.53 139.7 118.37 125.07 124.65 98.17 158.29 86.18 179.34 74.19 165.16 68.29 160.16"/>
            <path d="M68.29,160.31c-10.44,9.08-25.85,21.96-36.24,30.79,0,0,.27-.91.27-.91,0,0,6.27,19.07,6.27,19.07,3.95,12.14,14.48,44.76,18.52,57.32,0,0-1.04-.91-1.04-.91,33.3,5.66,74.09,13.5,107.15,19.43,11.92,2.1,23.81,4.31,35.75,6.3,0,0-.49.21-.49.21,0,0,13.63-21.22,13.63-21.22,8.59-13.5,31.68-49.92,40.55-63.89,0,0,.26,1.6.26,1.6,0,0-13.26-10.5-13.26-10.5l.25.16s-26.25-12.71-26.25-12.71c0,0-.66-.66-.66-.66,0,0-9.73-19.47-9.73-19.47,0,0,1.2.84,1.2.84l-3.68-.4,1.41-.62s-4.36,6.01-4.36,6.01c0,0-.08.1-.08.1,0,0-11.1,12.88-11.1,12.88l-2.51-.15c-10.72-15.83-28.53-42.15-38.46-57.07,0,0-6.97-7.21-6.97-7.21l1.5.3s-14.66,6.19-14.66,6.19l.48-.37c-6.74,8.37-20.41,25.08-27.21,33.39-3.67,6.36-8.18,14.03-12.17,20.8,0,0-.92.08-.92.08.03.03-11.89-14.5-11.74-14.34,0,0-5.72-5.05-5.72-5.05h0ZM68.29,160.01s6.07,4.94,6.07,4.94c-.02,0,12.25,14.01,12.24,14.03,0,0-.92.08-.92.08,3.9-7.12,7.84-14.23,11.81-21.32,6.62-8.44,19.93-25.47,26.6-33.87,0,0,.48-.37.48-.37,0,0,14.58-6.38,14.58-6.38l1.5.3,7.07,7.12s.16.2.16.2c4.87,7.11,14.65,21.38,19.47,28.52,0,0,19.42,28.56,19.42,28.56l-2.51-.15,11.13-12.86-.08.1,4.41-5.98,1.41-.62s3.68.42,3.68.42c0,0,1.2.84,1.2.84l9.59,19.54-.66-.66s26.14,12.93,26.14,12.93l.25.16,13.12,10.67s.26,1.61.26,1.61c-9.23,13.98-32.74,49.66-41.65,63.18,0,0-13.77,21.13-13.77,21.13,0,0-.49.21-.49.21-46.14-8.15-96.87-15.94-143.19-24.05,0,0-1.04-.91-1.04-.91-4-12.76-14.16-45.15-17.98-57.49,0,0-5.89-19.19-5.89-19.19,0,0,.27-.91.27-.91,10.65-8.79,26.42-20.99,37.32-29.77h0Z"/>
          </g>
          <g>
            <path d="M222.1,242.96c-2.56,4.08-5.08,8.04-7.4,11.73-2.35-3.16-4.17-5.33-5.71-7.78-.94-1.48-1.51-3.38-2.12-5.15-.57-1.65-.98-3.39-1.47-5.11-.41-.01-.83-.04-1.24-.06-.66,1.6-1.32,3.21-2.18,5.33-.64-1.72-1.25-3.3-1.85-4.9-.45-.08-.9-.17-1.36-.24-3.45,6.45-1.84,14.53-3.22,22.75-1.39-1.43-3.14-2.36-3.23-3.5-.46-5.84-3.7-6.04-7.15-6.31-1.39-.1-2.75-.67-3.5-.87-.2-1.86-.41-3.7-.61-5.53l-12,4.2c.58,1.31,1.15,2.6,1.73,3.9.27.61.37,1.36.59,2.23-2.46-.64-4.62-1.2-7.06-1.84t0,.03c-.04-.06-.15-.32-.18-.59-.99-11.15-.99-11.1-9.9-11.87-2.69-.24-5.34-1-8.03-1.18-2.44-.17-4.91-.84-6.88,2.48-.78,1.31-3.17,1.42-4.84,1.54-3.47.23-6.97.33-10.43.03-3.58-.32-4.48,1.88-4.24,5.74.19,2.87.37,5.74.54,8.6-.39.23-.78.46-1.17.69-.83-1.59-1.88-3.06-2.42-4.78-.77-2.38-1.17-4.94-1.7-7.45-1.6-7.75-1.3-7.95-8.91-8.17-2.54-.08-5.13.42-7.62-.03-4.1-.73-5.06,2.01-5,6.2.04,2.78.18,5.57.36,8.35.26,3.85-1.19,4.92-4.05,4.31-3.43-.73-6.9-1.31-10.37-1.7-2.61-.31-5.21-1.11-6.8,3.27-.89,2.45-7.82.13-9.89-3.02l-6.99-4.43c2.06,4.83,5.08,9.19,8.19,13.1,13.55,16.96,28.87,29.28,47.98,35.57,22,7.22,43,4.66,63.49-4.7,14.96-6.82,29.02-16.96,39.77-32.38,3.56-5.1,6.88-10.45,10.14-15.86l-3.28-2.57ZM88.6,267.95c-2.25,2.39-4.17.83-6.23-1.24,1.72-2.92,3.58-4.24,5.96-2.14.51.46.68,2.93.28,3.38ZM105.35,255.28c-.56.05-1.11.09-1.68.14-.1-2.27-.2-4.53-.32-6.79.61-.05,1.23-.1,1.84-.15,1.99,2.1,1.93,4.38.15,6.8ZM119.86,273.38c-.36-1.33-.72-2.66-1.28-4.7,1.3.35,2.44.31,2.57.76.35,1.14.26,2.5.34,3.76-.54.06-1.09.12-1.63.18ZM139.65,268.18c-1.04-.99-2.09-1.97-3.14-2.94.31-.53.61-1.05.92-1.57,1.05.97,2.1,1.96,3.15,2.93-.31.52-.61,1.05-.93,1.59ZM147.2,258.36c-.5.05-1.01.1-1.51.15v-8.51c.5-.01,1.01-.01,1.51-.03v8.39ZM157.28,259.93c-3.41-3.33-1.64-7.5-1.75-12.13,3.94,3.92,4.16,5.84,1.75,12.13ZM169.9,266.11c-.11-.87-.43-2.45-.31-2.51,1.26-.56,2.59-.9,3.9-1.29.15.88.31,1.77.47,2.66-1.36.37-2.72.76-4.07,1.14Z"/>
            <g>
              <path d="M231.35,217.77c-2.62,3.4-5.17,6.85-7.76,10.27l-3.21-2.01c1.74-2.22,3.52-4.5,5.27-6.8.44-.57.45-1.83.14-2.55-2.04-4.68-4.22-9.29-6.34-13.87-2.48.25-4.59.46-7.86.79-3.02-12.76-5.98-25.29-8.95-37.82-.39-.08-.78-.15-1.17-.23-3.3,4.79-7.76,8.9-8.26,14.68-1.48,1.25-3.05,2-3.73,3.24-3.88,7.05-7.59,14.21-11.26,21.37-.46.9-.63,2.12-.5,3.13.77,6.04,1.61,12.06,2.49,18.33l-11.75,3.28c-4.86-8.75-9.93-17.41-14.36-26.39-4.65-9.44-8.59-19.25-12.53-29.02-.88-2.18-.48-4.88-.66-7.34.37-.07.74-.15,1.11-.22,2.89,3.13,5.78,6.26,8.67,9.38.3-.19.6-.39.9-.58-.6-2.21-1.01-4.49-1.82-6.62-2.81-7.36-6.14-14.56-8.56-22.05-2.08-6.43-3.16-13.19-4.74-19.79-1.1-4.58-1.86-5.22-6.01-3.05-3.49,1.83-7,4.23-9.52,7.21-6.82,8.06-13.17,16.53-19.61,24.9-2.65,3.45-5.05,7.07-7.57,10.62-.31-.24-.62-.49-.92-.73,10.77-19.9,23.47-38.21,42.82-50.98,1.29.35,2.61.98,3.94,1.01,7.31.18,11.78,4.07,15.4,10.2,4.72,8,10.14,15.6,15.49,23.21,5.85,8.31,14.58,14.43,18.45,24.28.23.57,1.15.87,2.18,1.61,1.72-2.7,3.32-5.14,4.85-7.62,4.06-6.6,10.28-6.53,14.98-.49,5.87,7.57,12.34,14.67,18.61,21.93.86.99,2.06,1.7,3.57,2.91l5.02,2.89c.39,8.81-1.6,16.16-6.8,22.92Z"/>
              <path d="M231.47,217.86s-7.74,10.29-7.74,10.29l-.24.04s-3.21-2-3.21-2c0,0-.05-.28-.05-.28.77-1.01,4.34-5.68,5.02-6.58,1.15-1.29.04-3.07-.56-4.36,0,0-5.66-11.97-5.66-11.97,0,0,.46.26.46.26,0,0-7.85.9-7.85.9l-.61-.43-9.5-37.69.87.85-1.17-.22,1.17-.47c-3.01,4.54-7.44,8.62-7.92,14.14,0,0-.45.87-.45.87-1.36,1.24-2.99,1.81-3.69,3.41,0,0-.37.7-.37.7-1.86,3.6-6.9,13.15-8.85,16.85,0,0-1.48,2.81-1.48,2.81-.5.9-.64,1.46-.65,2.4.04.75.28,2.19.37,3.01.3,2.27,1.71,13.29,2.03,15.74,0,0-.87,1.33-.87,1.33l-11.79,3.15-1.23-.51c-8.42-15.04-16.52-30.44-22.76-46.58,0,0-3.21-8.02-3.21-8.02-.58-1.29-1.04-2.87-1.05-4.33-.07-1.47.02-2.91-.07-4.31,0,0,.39-.5.39-.5,0,0,1.11-.22,1.11-.22,0,0,.44.14.44.14,2.87,3.15,5.77,6.26,8.67,9.38l-.6-.08.9-.58-.21.53c-1.02-4.83-2.79-9.21-4.71-13.7-3.84-8.93-7.29-18.18-9.13-27.75-.91-3.35-1.2-7.09-2.77-10.16-.61-.74-1.49-.18-2.31.1-2.09.99-4.18,2.25-6.07,3.64-1.92,1.41-3.58,2.98-5.06,4.87-5.47,6.43-12.58,16.26-17.81,23.02-2.96,3.81-5.59,7.84-8.4,11.85,0,0-1.94.29-1.94.29l-.94-.74s-.35-1.71-.35-1.71c10.55-19.85,24.02-39.16,43.14-51.66,0,0,1.3-.21,1.3-.21,1.36.36,2.29.86,3.49.95,6.48-.03,12.18,3.69,15.52,8.96,5.42,9,11.4,17.91,17.54,26.43,5.51,7.4,13.25,13.53,16.96,22.27,0,0,.48,1.13.48,1.13-.14-.15.19.17.56.36.37.22.8.48,1.2.78l-1.71.33,4.17-6.35c4.14-7.29,10.97-9.08,16.72-2.29,3.89,5.05,7.83,9.93,11.98,14.77,1.59,1.85,5.77,6.88,7.39,8.64.87.79,2.13,1.65,2.92,2.32,0,0,5,2.93,5,2.93.82,8.13-1.71,16.79-6.81,23.24h0ZM231.23,217.68c2.47-3.22,4.38-6.87,5.47-10.78,1.11-3.9,1.4-8,1.19-12.04,0,0,.13.22.13.22l-5.04-2.85c-1-.79-2.07-1.48-3.08-2.35-1.72-1.75-5.94-6.6-7.69-8.49-3.39-3.77-6.76-7.58-10-11.51-1.66-1.97-3.06-4.04-5.1-5.22-4.88-3-8.67.41-10.98,4.71,0,0-4,6.49-4,6.49l-1.71.33c-.88-.66-1.85-.84-2.52-1.92,0,0-.58-1.29-.58-1.29-3.84-8.48-11.47-14.15-17.08-21.47-6.26-8.55-12.28-17.39-17.79-26.43-2.97-4.6-7.57-7.61-13.02-7.57-1.45-.06-2.99-.72-4.18-1.06,0,0,1.3-.21,1.3-.21-18.71,12.21-31.98,30.84-42.5,50.3,0,0-.35-1.71-.35-1.71,0,0,.9.72.9.72l-1.94.29c2.8-3.92,5.56-8,8.61-11.82,5.44-6.73,12.56-16.43,18.24-22.8,1.55-1.92,3.49-3.68,5.52-5.09,2.68-1.72,5.3-3.65,8.52-4.26,2.61-.22,3.21,2.86,3.68,4.77.55,2.39,1.03,4.77,1.52,7.15.97,4.76,1.95,9.49,3.48,14.07,2.87,9.24,7.82,17.95,9.84,27.44,0,0-.21.53-.21.53,0,0-.9.58-.9.58l-.6-.08c-2.88-3.14-5.75-6.28-8.67-9.38l.44.14s-1.11.23-1.11.23c0,0,.39-.5.39-.5.18,2.9-.25,5.67,1.12,8.32,3.2,7.73,6.61,16.28,10.27,23.74,4.96,10.35,10.91,20.19,16.62,30.21,0,0-1.23-.51-1.23-.51,0,0,11.71-3.41,11.71-3.41,0,0-.87,1.33-.87,1.33-.62-4.64-2.17-14.55-2.67-19.04-.19-2.24,1.48-4.61,2.41-6.49,1.98-3.77,6.98-13.26,8.92-16.88.13-.23.43-.83.56-1.05.88-1.74,2.86-2.65,4.13-3.76,0,0-.45.87-.45.87.14-1.57.57-3.1,1.19-4.5,1.77-4.02,5-7.27,7.41-10.71,0,0,1.17-.47,1.17-.47,0,0,1.17.24,1.17.24,0,0,.87.85.87.85l8.4,37.95s-.61-.43-.61-.43c0,0,7.87-.68,7.87-.68l.46.26s5.36,12.13,5.36,12.13c.51,1.15,1.43,2.76.89,4.12-.08.3-.31.59-.47.78,0,0-1.03,1.3-1.03,1.3,0,0-4.1,5.21-4.1,5.21l-.05-.28,3.21,2.02s-.24.04-.24.04c0,0,7.78-10.25,7.78-10.25h0Z"/>
            </g>
            <g>
              <path d="M97.62,171.82c-1.88,12.84-4.02,25.65-5.62,38.52-.67,5.36-.18,10.85-.3,16.29-.03,1.54-.32,3.09-.49,4.63-.47.04-.94.08-1.41.12-.42-1.51-.99-3.01-1.22-4.56-.22-1.52.03-3.11-.12-4.65-.51-5.08-.79-9.81-3.8-14.73-5.3-8.66-8.82-18.42-12.98-27.77-.5-1.11-.29-2.54-.48-4.58,2.33.75,3.82,1.24,6.18,2-3.23-5.11-6.05-9.59-9.59-15.2,0,0-17.87,14.86-18.69,15.47-.81.61-2.94,1.52-1.8-.9s21.35-18.07,21.35-18.07c1.15,1.61,1.72,2.42,2.41,3.39.27-1,.46-1.7.72-2.67,4.07,1.68,8.15,3.07,11.94,5,3.63,1.85,6.96,4.26,10.62,6.54-.06.57-.17,1.57-.28,2.57.21.1.42.19.63.28.68-1.43,1.37-2.87,2.51-5.28.24,1.93.54,2.8.42,3.6Z"/>
              <path d="M97.77,171.84c-1.83,12.18-3.25,24.91-4.43,37.16-.55,4.32-.36,10.41-.29,14.79.08,2.46-.17,5.26-.58,7.61,0,0-1.16,1.13-1.16,1.13,0,0-1.41.1-1.41.1,0,0-1.32-.91-1.32-.91-.47-1.76-1.18-3.79-1.21-5.75-.02-1.26.14-2.5.07-3.7-.14-1.82-.24-3.78-.47-5.56-.37-5.15-3-9.2-5.36-13.62-3.74-7.24-6.66-14.86-10.12-22.23-1.07-1.75-.85-3.89-1.06-5.69,0,0,1.01-.81,1.01-.81l6.23,1.84-1.08,1.39c-2.91-4.34-7.02-10.57-9.91-15,0,0,1.94.31,1.94.31l-10.72,9.08c-.97.82-5.84,4.93-6.71,5.67-.28.25-.9.75-1.19,1-1.22.96-3.5,1.65-4.4-.12-.61-1.3.17-2.84,1.01-3.81,3.09-3.24,6.62-6.02,10.07-8.83,3.66-2.92,7.33-5.82,11.09-8.61l2.03.3c.78,1.15,1.57,2.29,2.34,3.45l-2.37.42.8-2.65,1.69-.83c3.82,1.72,7.81,3.28,11.6,5.36,3.79,2.1,7.13,4.74,10.66,7.06l.15.31s-.33,2.57-.33,2.57l-.15-.28s.61.29.61.29l-.34.13c.88-1.74,1.73-3.49,2.58-5.25,0,0,.34.05.34.05.09,1.23.51,2.38.39,3.64h0ZM97.47,171.8c.08-1.16-.34-2.38-.45-3.56,0,0,.34.05.34.05-.83,1.77-1.65,3.53-2.44,5.31l-.34.13-.65-.27-.15-.28.23-2.57.15.31c-3.67-2.14-7.21-4.52-11.01-6.23-3.8-1.73-7.85-2.91-11.86-4.43,0,0,1.69-.83,1.69-.83l-.64,2.69-2.37.42c-.84-1.1-1.66-2.22-2.48-3.33l2.03.3c-5.24,4.21-11.02,8.91-16.17,13.29-1.59,1.39-3.25,2.76-4.61,4.34,0,0-.12.28-.12.28-.02.06-.05.16-.05.17,0-.28-.1-.48-.3-.75-.28-.28-.58-.4-.86-.38.01,0,.07-.02.14-.04.42-.15.68-.37,1.09-.71.42-.32,1.6-1.31,2.03-1.65,3.43-2.79,12.72-10.3,16.27-13.18,0,0,1.94.31,1.94.31l4.66,7.68c1.56,2.56,3.07,5.15,4.61,7.72l-1.08,1.39-6.13-2.16,1.01-.81c.17,1.6-.15,3.06.34,4.44.23.54.84,2.05,1.07,2.61,2.74,6.72,5.65,14.2,9.11,20.54,2.55,4.42,5.51,8.61,6.18,13.83.34,1.83.56,3.79.79,5.62.16,1.3.05,2.57.15,3.8.14,1.81.87,3.34,1.39,5.18,0,0-1.32-.91-1.32-.91,0,0,1.41-.14,1.41-.14,0,0-1.16,1.13-1.16,1.13.33-2.49.51-4.85.43-7.31-.04-2.47-.09-4.98-.04-7.51.04-5.07,1.11-10.03,1.95-14.99,1.76-9.69,3.76-19.74,5.19-29.51h0Z"/>
            </g>
          </g>
          <g>
            <g>
              <path d="M207.12,7.94l-3.3-.78V1.5h-50.71v13.09h3.2c-2.93,7.24-6.95,16.69-7.8,19.15-5.65,16.43-11.14,32.92-17.2,49.19-2.55,6.9-2.07,11.68,6.87,14.07-2.92,6.36-5.5,12.13-8.21,17.83-2.43,5.11-5.24,10.05-7.4,15.26-6.9,16.79-3.95,22.42,13.62,25.27-6.51,20.33-20.45,38.06-22.99,61.33,13.07-7.23,44.09-51.61,52.83-71.74.07-.21.19-.48.29-.8v-.04c.45-1.3,1.18-3.3,1.94-5.29-4.84-1.62-9.65-3.22-15.82-5.29,1.62-2.52,3.2-4.99,4.81-7.47,6.54-10.16,13.31-20.17,19.37-30.6,1.3-2.23,4.2-8.13,4.2-8.13,0,0-8.87-5.46-12.5-6.76,8.15-16,25.9-47.24,35.5-65.99,1.26-2.44,2.37-4.68,3.3-6.64ZM173.94,54.61c-5.36,9.72-13.34,18.43-9.77,32.95.04.27.11.54.17.81.73,2.1,5.54,2.9,5.22,3.38-4.34,6.15-8.06,12.73-12.03,19.13-5.29,8.55-10.57,17.11-16.4,26.55,6.67,2.02,12.57,3.81,19.05,5.75-10.41,10.83-16.67,29.93-25.14,40.71.91-4.53,1.21-7.56,2.16-10.34,1.09-3.18,2.94-6.1,4.15-9.28,4.91-12.95,4.06-14.25-9.32-14.97-1.43-.09-2.86-.5-6.13-1.07,5.49-14.33,10.53-27.99,15.99-41.49,3.06-7.61,5.13-14.55-4.91-18.63,4.75-12.41,9.35-23.96,13.58-35.64,2.56-7.07,5.14-14.19,6.67-21.52l6.66-16.35h32.42c-7,13.03-17.78,31.7-22.38,40.02Z"/>
              <g>
                <path d="M206.98,8.01c-1.11-.21-2.17-.4-3.22-.62,0,0-.18-.22-.18-.22,0,0-.12-5.66-.12-5.66,0,0,.35.35.35.35-14.62.14-35.85.67-50.71.71,0,0,1.06-1.06,1.06-1.06.06,4.36.08,8.72.1,13.09,0,0-1.16-1.16-1.16-1.16,0,0,3.2-.01,3.2-.01l1.09,1.61c-1.49,3.66-4.96,12.37-6.38,15.87-5.97,16.08-10.92,32.54-17.1,48.55-3.18,7.9-5.65,13.92,4.52,16.62,0,0,.63,1.33.63,1.33l-7.87,16.57c-4.43,9.55-10.92,18.68-11.54,29.42-.15,8.57,9.96,10.36,16.63,11.48,0,0,.39.64.39.64-1.67,5.26-3.82,10.33-6.12,15.32-4.53,9.95-9.62,19.69-12.93,30.11-1.65,5.17-2.83,10.48-3.36,15.86l-1.57-1.05c3-1.81,5.69-4.44,8.26-7.06,7.69-8.07,14.35-17.08,20.82-26.16,8.41-12.16,16.72-24.77,22.81-38.21-.2.55.24-.68.24-.67,0,0-.08.5-.08.5,0,0,0-.04,0-.04l.09-.52,1.94-5.34.99,2.08-15.82-5.28-.84-2.39c9.32-14.82,20.65-30.34,28.51-45.93,0,0,.51,1.77.51,1.77-1.99-1.24-4.02-2.45-6.06-3.62-1.98-1.11-4.08-2.31-6.15-3.12,0,0-.7-1.75-.7-1.75,12.57-23.86,27.2-48.14,39.78-72h0ZM207.26,7.88c-11.32,24.53-25.64,49.14-37.81,73.27,0,0-.7-1.75-.7-1.75,1.23.45,2.31.97,3.4,1.52,3.21,1.63,6.31,3.42,9.4,5.27,0,0,.51,1.77.51,1.77-6.72,14.34-19.76,32.91-28.27,46.46,0,0-.84-2.39-.84-2.39l15.81,5.3s.99,2.08.99,2.08c0,0-1.93,5.24-1.93,5.24l.09-.52v.04s-.08.5-.08.5l-.29.77-.06.16c-6.39,13.76-14.77,26.23-23.45,38.56-6.6,9.14-13.5,18.11-21.42,26.19-2.7,2.66-5.43,5.31-8.9,7.29,0,0-1.57-1.05-1.57-1.05,1.32-11.04,5.43-21.49,10.19-31.43,4.72-9.87,10.01-19.51,13.39-29.94,0,0,.39.64.39.64-3.03-.52-6.06-1.13-8.98-2.2-7.24-2.47-9.74-7.56-7.97-14.91,2.03-9.05,6.98-17.08,10.68-25.41,0,0,7.46-16.74,7.46-16.74l.63,1.33c-7.49-1.76-10.75-6.33-8.24-13.88,6.05-16.77,12.62-37.24,18.96-53.99,1.45-3.56,5.09-12.29,6.56-15.91,0,0,1.09,1.61,1.09,1.61h-3.2s-1.16-1.17-1.16-1.17c.02-4.36.03-8.73.1-13.09l1.06-1.06c14.92.35,36,.26,50.71.71,0,0,.35.35.35.35,0,0-.12,5.66-.12,5.66,0,0-.18-.22-.18-.22,1.15.3,2.29.63,3.38.94h0Z"/>
                <path d="M174.08,54.68c-4.25,7.61-10.01,15.05-10.33,24.1-.19,3.11.4,6.59,1.14,9.4.73,1.43,2.97,1.92,4.37,2.51.59.19,1.37.74.86,1.49-4.41,6.53-8.09,13.47-12.16,20.24-5.15,8.62-10.37,17.19-15.68,25.71l-.75-1.98c6.35,1.93,12.68,3.9,19,5.92,0,0,.5,1.91.5,1.91-8.27,8.6-13.08,19.85-19.02,30.09-1.98,3.49-4.07,6.94-6.57,10.12,0,0-.86-.4-.86-.4.9-4.21,1.25-8.67,3.1-12.63,1.88-3.92,3.69-7.73,4.92-11.9.55-1.9,1.29-4.11.83-6.03-1.08-3.43-8.11-2.9-11.16-3.23-2.24-.12-4.29-.71-6.47-1.02,0,0-.59-1.04-.59-1.04,3.89-10.46,7.69-20.96,11.63-31.41l2.94-7.84c1.92-5.53,6.22-13.23.06-17.44-1-.76-2.21-1.28-3.37-1.8,0,0-.81-1.87-.81-1.87,3.62-9.81,12.55-33.01,15.9-42.6,1.72-4.82,3.18-9.69,4.29-14.63,2.23-5.44,4.5-10.87,6.78-16.3,0,0,1.3-.87,1.3-.87,0,0,16.21.26,16.21.26,0,0,16.21.36,16.21.36l.69,1.16c-6.65,11.32-16.65,28.4-22.94,39.72h0ZM173.81,54.53c6.3-11.24,15.73-28.83,21.82-40.32,0,0,.69,1.16.69,1.16-8.09.24-24.33.48-32.42.61,0,0,1.3-.87,1.3-.87-2.16,5.47-4.33,10.94-6.53,16.4-.62,3.7-2.58,10.06-4.1,14.52-3.25,9.51-12.52,32.86-16.21,42.59,0,0-.81-1.87-.81-1.87.68.32,1.36.61,2.02.96,9.72,5.1,5.89,14.09,2.59,21.95,0,0-3.08,7.77-3.08,7.77-4.08,10.38-8.3,20.7-12.44,31.06l-.59-1.04c2.08.35,4.21.99,6.28,1.16,2.15.15,4.32.31,6.5.69,4.19.62,6.64,2.58,5.6,7.09-1.16,5.32-3.55,10.31-5.93,15.14-1.84,3.9-2.08,8.27-2.98,12.46,0,0-.86-.4-.86-.4,2.4-3.14,4.4-6.6,6.29-10.09,5.7-10.6,10.18-22.06,18.39-31.12,0,0,.5,1.91.5,1.91-6.38-1.81-12.75-3.68-19.11-5.59,0,0-.75-1.98-.75-1.98,5.25-8.56,10.58-17.07,15.98-25.53,4.26-6.61,8.33-13.43,12.99-19.8,0,0,.02-.02.02-.02h0s-.04.04-.05.08c-.11.22-.02.56.11.66-.03-.02-.2-.11-.33-.17-1.78-.82-4.06-1.37-4.92-3.38-.68-3.06-1.13-6.54-.82-9.83.67-9.11,6.49-16.55,10.82-24.19h0Z"/>
              </g>
            </g>
            <g>
              <path class="cls-7" d="M173.94,54.61c-5.36,9.72-13.34,18.43-9.77,32.95.04.27.11.54.17.81.73,2.1,5.54,2.9,5.22,3.38-4.34,6.15-8.06,12.73-12.03,19.13-5.29,8.55-10.57,17.11-16.4,26.55,6.67,2.02,12.57,3.81,19.05,5.75-10.41,10.83-16.67,29.93-25.14,40.71.91-4.53,1.21-7.56,2.16-10.34,1.09-3.18,2.94-6.1,4.15-9.28,4.91-12.95,4.06-14.25-9.32-14.97-1.43-.09-2.86-.5-6.13-1.07,5.49-14.33,10.53-27.99,15.99-41.49,3.06-7.61,5.13-14.55-4.91-18.63,4.75-12.41,9.35-23.96,13.58-35.64,2.56-7.07,5.14-14.19,6.67-21.52l6.66-16.35h32.42c-7,13.03-17.78,31.7-22.38,40.02Z"/>
              <path d="M174.08,54.68c-4.25,7.61-10.01,15.05-10.33,24.1-.19,3.11.4,6.59,1.14,9.4.73,1.43,2.97,1.92,4.37,2.51.59.19,1.37.74.86,1.49-4.41,6.53-8.09,13.47-12.16,20.24-5.15,8.62-10.37,17.19-15.68,25.71l-.75-1.98c6.35,1.93,12.68,3.9,19,5.92,0,0,.5,1.91.5,1.91-8.27,8.6-13.08,19.85-19.02,30.09-1.98,3.49-4.07,6.94-6.57,10.12,0,0-.86-.4-.86-.4.9-4.21,1.25-8.67,3.1-12.63,1.88-3.92,3.69-7.73,4.92-11.9.55-1.9,1.29-4.11.83-6.03-1.08-3.43-8.11-2.9-11.16-3.23-2.24-.12-4.29-.71-6.47-1.02,0,0-.59-1.04-.59-1.04,3.89-10.46,7.69-20.96,11.63-31.41l2.94-7.84c1.92-5.53,6.22-13.23.06-17.44-1-.76-2.21-1.28-3.37-1.8,0,0-.81-1.87-.81-1.87,3.62-9.81,12.55-33.01,15.9-42.6,1.72-4.82,3.18-9.69,4.29-14.63,2.23-5.44,4.5-10.87,6.78-16.3,0,0,1.3-.87,1.3-.87,0,0,16.21.26,16.21.26,0,0,16.21.36,16.21.36l.69,1.16c-6.65,11.32-16.65,28.4-22.94,39.72h0ZM173.81,54.53c6.3-11.24,15.73-28.83,21.82-40.32,0,0,.69,1.16.69,1.16-8.09.24-24.33.48-32.42.61,0,0,1.3-.87,1.3-.87-2.16,5.47-4.33,10.94-6.53,16.4-.62,3.7-2.58,10.06-4.1,14.52-3.25,9.51-12.52,32.86-16.21,42.59,0,0-.81-1.87-.81-1.87.68.32,1.36.61,2.02.96,9.72,5.1,5.89,14.09,2.59,21.95,0,0-3.08,7.77-3.08,7.77-4.08,10.38-8.3,20.7-12.44,31.06l-.59-1.04c2.08.35,4.21.99,6.28,1.16,2.15.15,4.32.31,6.5.69,4.19.62,6.64,2.58,5.6,7.09-1.16,5.32-3.55,10.31-5.93,15.14-1.84,3.9-2.08,8.27-2.98,12.46,0,0-.86-.4-.86-.4,2.4-3.14,4.4-6.6,6.29-10.09,5.7-10.6,10.18-22.06,18.39-31.12,0,0,.5,1.91.5,1.91-6.38-1.81-12.75-3.68-19.11-5.59,0,0-.75-1.98-.75-1.98,5.25-8.56,10.58-17.07,15.98-25.53,4.26-6.61,8.33-13.43,12.99-19.8,0,0,.02-.02.02-.02h0s-.04.04-.05.08c-.11.22-.02.56.11.66-.03-.02-.2-.11-.33-.17-1.78-.82-4.06-1.37-4.92-3.38-.68-3.06-1.13-6.54-.82-9.83.67-9.11,6.49-16.55,10.82-24.19h0Z"/>
            </g>
          </g>
        </g>
        <path class="cls-2" d="M140.4,302.74s-106.45-37.56-106.45-208.16c42.37-15.78,42.46-19.48,70.63-48.23,11.35,0,35.81,0,35.81,0h35.81c28.17,28.75,28.26,32.45,70.63,48.23,0,170.6-106.45,208.16-106.45,208.16Z"/>
      </g>
      <g>
        <g>
          <path class="cls-8" d="M226.58,254.58c4.94-1.47,9.74-3.36,14.42-5.71l-14.42-11.41v17.11Z"/>
          <path class="cls-8" d="M32.55,288.22s-.05-.06-.08-.09c-.06-.06-.11-.13-.15-.2-.02-.04-.04-.07-.06-.11-.04-.08-.07-.15-.1-.24-.01-.04-.03-.07-.04-.11-.03-.12-.05-.24-.05-.37v-16.34c-11.06,2.75-21.58,7.22-32.07,13.62,5.96,1.47,11.99,3.68,18,6.59.42.21.73.59.84,1.05.11.46,0,.94-.28,1.32-5.97,7.87-11.73,16-17.49,24.69,15.16-8.79,30.46-13.7,47.43-15.26l-15.91-14.51s-.02-.03-.04-.04Z"/>
          <path class="cls-8" d="M259.24,247.29c-.42-.21-.73-.59-.84-1.05-.11-.46,0-.94.28-1.32,5.97-7.87,11.73-16,17.49-24.69-15.05,8.72-30.24,13.62-47.05,15.23l15.76,12.46s.05.06.08.08c.04.04.08.07.11.11.05.06.1.12.14.19.03.04.06.08.08.12.04.07.07.15.1.23.01.04.03.08.04.12.03.12.05.25.05.38v18.27c10.95-2.75,21.37-7.2,31.77-13.55-5.96-1.47-11.99-3.68-18-6.59Z"/>
          <path class="cls-8" d="M50.65,281.77c-4.89,1.47-9.64,3.37-14.28,5.7l14.28,13.02v-18.72Z"/>
          <path class="cls-8" d="M35.22,284.52c13.18-6.58,27.23-9.78,42.86-9.78,20.44,0,41.1,5.51,61.09,10.84,19.79,5.28,40.26,10.74,60.28,10.74,15.69,0,29.72-3.33,42.87-10.17v-34.42c-13.19,6.58-27.24,9.78-42.87,9.78-20.44,0-41.11-5.51-61.09-10.84-19.79-5.28-40.25-10.74-60.28-10.74-15.69,0-29.72,3.33-42.86,10.17v34.42Z"/>
        </g>
        <g>
          <path class="cls-1" d="M35.51,277.6c13.18-6.58,27.23-9.78,42.86-9.78,20.44,0,41.1,5.51,61.09,10.84,19.79,5.28,40.26,10.74,60.28,10.74,15.69,0,29.72-3.33,42.87-10.17v-2.3"/>
          <path class="cls-6" d="M79.05,258.71l-.2,4.87,3.37,1.7-5.23,3.18-3.21-2.24.73-14.95-3.04-2.27,4.7-2.94,3.46,2.68-.29,6.93,6.35.19.19-4.46-3.24-2.36,5.04-2.49,3.23,2.79-.67,14.81,3.05,1.86-4.78,2.82-3.41-2.42.34-7.51-6.38-.19Z"/>
          <path class="cls-6" d="M97.41,270l-4.48-3.06,1.52-9.77,7.65-3.22,4.39,2.84-1.57,10.32-7.51,2.89ZM100.5,267.25l1.42-9.14-3.14-1.34-1.38,8.85,3.1,1.63Z"/>
          <path class="cls-6" d="M115.14,269.49l1.94-8.66-1.82-1.87,4.62-1.35,1.92,2.4-2.15,9.62,2.08,2.2-4.44,1.63-2.5-2.58-4.25,1.14-3.1-2.98,2.33-9.76-2.45-2.01,5.19-1.23,1.97,2.41-2.21,9.19,2.86,1.86Z"/>
          <path class="cls-6" d="M123.04,267.09l1.28-4.94,6.54-2.21,3.88,3.22-3.01,1.6-3.16-2.53-.8,3.06,4.71,3.01-1.36,5.16-6.64,1.79-3.83-3.3,3.49-1.63,2.9,2.62.77-2.83-4.77-3.03Z"/>
          <path class="cls-6" d="M143.24,263.46l3.07,4.24-.84,2.93h-6.75s-.81,2.82-.81,2.82l5.64,4.41-6.33.99-4.35-4.07,2.88-9.59,7.48-1.73ZM139.24,268.79l2.98-.47-2.08-2.78-.89,3.24Z"/>
          <path class="cls-6" d="M162.41,285.33c-.42.4-.87.34-1.16.11-.24-.2-.36-.56-.11-.86,0,0,.17-.32-1.06-.62l-11.31-2.76c-.46-.11-.76-.69-.22-1.25,0,0,9.25-9.76,14.07-14.83l-6.61-1.61c-1.15-.28-2.03.59-2.03.59-.44.39-.94.3-1.16.02-.25-.28-.25-.75.14-1.16l3.05-3c.42-.4.87-.34,1.16-.13.23.22.35.58.11.86,0,0-.17.35,1.06.65l10.22,2.49c.46.11.81.61.34,1.11,0,0-9.37,9.9-14.17,14.98l7.68,1.87c1.15.28,2.03-.59,2.03-.59.45-.42.94-.3,1.16-.02.25.28.26.73-.13,1.13l-3.06,3.03Z"/>
          <path class="cls-6" d="M167.94,272.3l4.91-1.51,2.15,2.59-2.16,9.68,2.33,1.97-5.11,1.59-2-2.29,2.23-10.02-2.35-2.01ZM172.99,269.38l-1.02-1.24,4.94-3.6,1.16,1.32-5.08,3.51Z"/>
          <path class="cls-6" d="M180.02,288.62l-4.5-3.03,1.45-9.78,7.63-3.27,4.41,2.81-1.5,10.33-7.49,2.94ZM183.1,285.85l1.36-9.15-3.15-1.32-1.32,8.86,3.11,1.6Z"/>
          <path class="cls-6" d="M196.28,277.46l-.23,8.41,2.08,1.7-4.25,2.23-2.31-1.85.26-9.8-2.62-2.09,4.57-2.34,2.59,2.32,4.14-2.18,3.4,2.28-.38,9.88,2.58,1.48-4.72,2.45-2.34-1.85.37-9.24-3.13-1.4Z"/>
        </g>
      </g>
    </g>
  </g>
</svg>